<?xml version="1.0" encoding="utf-8"?>
<svg viewBox="209.654 293.949 1520.173 244.235" xmlns="http://www.w3.org/2000/svg">
  <g transform="matrix(1, 0, 0, 1, -32.42074966430664, -335.014404296875)">
    <g transform="matrix(0.75, 0, 0, 0.75, 249.090912, 635.395569)">
      <svg viewBox="0 0 396 61" data-background-color="#ffffff" preserveAspectRatio="xMidYMid meet" height="308" width="2000" xmlns="http://www.w3.org/2000/svg">
        <g id="tight-bounds" transform="matrix(1,0,0,1,0.2400000000000091,-0.23649053832590994)">
          <svg viewBox="0 0 395.52 61.47298107665181" height="61.47298107665181" width="395.52">
            <g>
              <svg viewBox="0 0 480.3218893043143 74.65316143786853" height="61.47298107665181" width="395.52">
                <g transform="matrix(1,0,0,1,84.80188930431434,18.457611451854273)">
                  <svg viewBox="0 0 395.52 37.73793853415999" height="37.73793853415999" width="395.52">
                    <g id="textblocktransform">
                      <svg viewBox="0 0 395.52 37.73793853415999" height="37.73793853415999" width="395.52" id="textblock">
                        <g>
                          <rect width="192.61824" height="1.9384070224911487" y="31.184257769258977" x="202.90176" fill="#1e55b3" data-fill-palette-color="tertiary"/>
                        </g>
                        <g>
                          <svg viewBox="0 0 395.52 21.494620093626214" height="21.494620093626214" width="395.52">
                            <g transform="matrix(1,0,0,1,0,0)">
                              <svg width="395.52" viewBox="4.86 -43.43 813.51 44.21" height="21.494620093626214" data-palette-color="#1e55b3">
                                <path d="M4.96-1.56L4.96-1.56Q4.96-2.59 5.1-3.3 5.25-4 5.27-3.96L5.27-3.96Q5.32-6.62 5.36-9.35 5.4-12.08 5.4-15.14L5.4-15.14Q5.4-17.07 5.4-19.32 5.4-21.58 5.36-23.89 5.32-26.2 5.25-28.43 5.18-30.66 5.05-32.57L5.05-32.57Q4.96-33.13 4.91-33.58 4.86-34.03 4.86-34.55L4.86-34.55Q4.86-35.74 5.37-36.44 5.88-37.13 7.03-37.4L7.03-37.4Q7.52-37.82 8.12-37.98 8.72-38.13 9.28-38.13L9.28-38.13Q9.86-38.13 10.34-37.79 10.82-37.45 11.18-36.99 11.55-36.52 11.79-36.02 12.04-35.52 12.13-35.21L12.13-35.21Q12.89-34.08 13.95-32.64 15.01-31.2 16.27-29.55 17.53-27.91 18.95-26.11 20.36-24.32 21.81-22.49 23.27-20.65 24.71-18.84 26.15-17.02 27.44-15.33 28.74-13.65 29.86-12.15 30.98-10.64 31.79-9.45L31.79-9.45Q31.79-14.67 31.75-18.44 31.71-22.22 31.67-24.87 31.62-27.51 31.54-29.22 31.47-30.93 31.42-32.06 31.37-33.18 31.34-33.9 31.3-34.62 31.3-35.28L31.3-35.28Q31.3-36.25 31.51-36.88 31.71-37.5 32.09-37.84 32.47-38.18 33.03-38.31 33.59-38.43 34.33-38.43L34.33-38.43Q35.28-38.43 35.82-38.04 36.35-37.65 36.63-37.05 36.91-36.45 36.98-35.71 37.04-34.96 37.04-34.25L37.04-34.25 37.04-6.25Q37.04-5.37 37.13-4.48 37.23-3.59 37.23-2.59L37.23-2.59Q37.23-1.64 37.08-1.01 36.94-0.39 36.61 0 36.28 0.39 35.75 0.55 35.23 0.71 34.5 0.71L34.5 0.71Q33.13 0.71 32.31 0.02 31.49-0.66 31.15-1.64L31.15-1.64Q28.83-4.81 26.45-7.9 24.07-10.99 21.66-14.07 19.24-17.16 16.8-20.3 14.36-23.44 11.94-26.68L11.94-26.68 10.47-28.98Q10.5-25.24 10.52-22.33 10.55-19.41 10.57-17.13 10.6-14.84 10.62-13.1 10.64-11.35 10.66-9.97 10.67-8.59 10.68-7.46 10.69-6.32 10.69-5.25L10.69-5.25Q10.72-4.61 10.78-3.89 10.84-3.17 10.84-2.49L10.84-2.49Q10.84-1.86 10.73-1.27 10.62-0.68 10.3-0.24 9.99 0.2 9.41 0.45 8.84 0.71 7.91 0.71L7.91 0.71Q6.67 0.71 5.81 0.1 4.96-0.51 4.96-1.56ZM46.92-2.76L46.92-2.76Q46.92-3.17 47.03-3.64 47.14-4.1 47.26-4.49L47.26-4.49 47.48-5.27 46.92-34.47Q46.92-35.67 47.2-36.33 47.48-36.99 47.92-37.3 48.36-37.62 48.94-37.67 49.51-37.72 50.1-37.72L50.1-37.72 62.96-37.72Q63.4-37.77 63.95-37.85 64.5-37.94 64.72-37.94L64.72-37.94Q65.65-37.94 66.22-37.77 66.79-37.6 67.12-37.27 67.45-36.94 67.56-36.45 67.67-35.96 67.67-35.3L67.67-35.3Q67.67-34.38 67.44-33.81 67.21-33.25 66.81-32.95 66.4-32.64 65.87-32.54 65.33-32.45 64.72-32.45L64.72-32.45Q64.45-32.45 64.01-32.46 63.57-32.47 63.08-32.52L63.08-32.52Q60.72-32.52 59.26-32.52 57.81-32.52 56.94-32.51 56.08-32.5 55.62-32.5 55.17-32.5 54.83-32.5L54.83-32.5 52.56-32.5 52.56-24.76Q52.71-24.76 52.91-24.74 53.12-24.73 53.56-24.73 54-24.73 54.77-24.73 55.54-24.73 56.83-24.73 58.13-24.73 60.03-24.73 61.94-24.73 64.65-24.73L64.65-24.73Q64.91-24.73 65.26-24.76 65.6-24.78 65.94-24.83L65.94-24.83Q66.38-24.88 66.97-24.93 67.55-24.98 68.23-24.98L68.23-24.98Q68.89-24.98 69.41-24.71 69.92-24.44 70.27-24.04 70.63-23.63 70.81-23.17 70.99-22.71 70.99-22.29L70.99-22.29Q70.99-20.97 70.13-20.36 69.26-19.75 67.89-19.75L67.89-19.75 52.56-19.73 52.56-5.1Q54.98-5.1 57.42-5.03 59.86-4.96 62.52-4.96L62.52-4.96Q63.25-4.96 63.86-5.03 64.48-5.1 65.04-5.2L65.04-5.2Q65.55-5.27 66.07-5.33 66.6-5.4 67.23-5.4L67.23-5.4Q67.97-5.4 68.59-5.29 69.21-5.18 69.68-4.9 70.14-4.61 70.41-4.14 70.68-3.66 70.68-2.93L70.68-2.93Q70.68-1.86 70.31-1.27 69.94-0.68 69.32-0.4 68.7-0.12 67.91-0.06 67.11 0 66.26 0L66.26 0 49.83 0Q49.19 0 48.67-0.15 48.14-0.29 47.75-0.62 47.36-0.95 47.14-1.48 46.92-2 46.92-2.76ZM79.17-2.76L79.17-2.76Q79.17-3.17 79.28-3.64 79.39-4.1 79.51-4.49L79.51-4.49 79.73-5.27 79.17-34.47Q79.17-35.67 79.45-36.33 79.73-36.99 80.17-37.3 80.61-37.62 81.18-37.67 81.76-37.72 82.34-37.72L82.34-37.72 95.21-37.72Q95.65-37.77 96.2-37.85 96.75-37.94 96.97-37.94L96.97-37.94Q97.9-37.94 98.47-37.77 99.04-37.6 99.37-37.27 99.7-36.94 99.81-36.45 99.92-35.96 99.92-35.3L99.92-35.3Q99.92-34.38 99.69-33.81 99.46-33.25 99.06-32.95 98.65-32.64 98.12-32.54 97.58-32.45 96.97-32.45L96.97-32.45Q96.7-32.45 96.26-32.46 95.82-32.47 95.33-32.52L95.33-32.52Q92.96-32.52 91.51-32.52 90.06-32.52 89.19-32.51 88.33-32.5 87.87-32.5 87.42-32.5 87.08-32.5L87.08-32.5 84.81-32.5 84.81-24.76Q84.96-24.76 85.16-24.74 85.37-24.73 85.81-24.73 86.25-24.73 87.02-24.73 87.79-24.73 89.08-24.73 90.38-24.73 92.28-24.73 94.18-24.73 96.89-24.73L96.89-24.73Q97.16-24.73 97.5-24.76 97.85-24.78 98.19-24.83L98.19-24.83Q98.63-24.88 99.21-24.93 99.8-24.98 100.48-24.98L100.48-24.98Q101.14-24.98 101.66-24.71 102.17-24.44 102.52-24.04 102.88-23.63 103.06-23.17 103.24-22.71 103.24-22.29L103.24-22.29Q103.24-20.97 102.38-20.36 101.51-19.75 100.14-19.75L100.14-19.75 84.81-19.73 84.81-5.1Q87.23-5.1 89.67-5.03 92.11-4.96 94.77-4.96L94.77-4.96Q95.5-4.96 96.11-5.03 96.72-5.1 97.29-5.2L97.29-5.2Q97.8-5.27 98.32-5.33 98.85-5.4 99.48-5.4L99.48-5.4Q100.21-5.4 100.84-5.29 101.46-5.18 101.92-4.9 102.39-4.61 102.66-4.14 102.92-3.66 102.92-2.93L102.92-2.93Q102.92-1.86 102.56-1.27 102.19-0.68 101.57-0.4 100.95-0.12 100.15-0.06 99.36 0 98.51 0L98.51 0 82.08 0Q81.44 0 80.92-0.15 80.39-0.29 80-0.62 79.61-0.95 79.39-1.48 79.17-2 79.17-2.76ZM112.18-2.86L112.18-2.86Q112.18-3.98 112.27-5.05 112.37-6.13 112.37-7.57L112.37-7.57Q112.37-14.06 112.33-20.58 112.3-27.1 112.1-33.76L112.1-33.76Q111.83-34.28 111.63-34.89 111.42-35.5 111.42-35.94L111.42-35.94Q111.42-36.99 111.99-37.71 112.57-38.43 113.96-38.43L113.96-38.43Q114.67-38.43 115.35-38.24 116.03-38.06 116.81-38.06L116.81-38.06Q118.52-38.06 120.21-38.24 121.89-38.43 123.65-38.43L123.65-38.43Q127.24-38.43 130.08-37.73 132.93-37.04 135.08-35.8 137.22-34.57 138.74-32.87 140.25-31.18 141.19-29.16 142.13-27.15 142.57-24.89 143.01-22.63 143.01-20.31L143.01-20.31Q143.01-18.24 142.58-15.88 142.16-13.53 141.18-11.22 140.2-8.91 138.64-6.8 137.08-4.69 134.78-3.08 132.49-1.46 129.42-0.5 126.36 0.46 122.4 0.46L122.4 0.46Q121.48 0.46 120.56 0.38 119.65 0.29 118.72 0.18 117.79 0.07 116.85-0.01 115.91-0.1 114.93-0.1L114.93-0.1Q113.44-0.1 112.81-0.78 112.18-1.46 112.18-2.86ZM117.47-32.76L117.62-5.37Q118.13-5.22 118.85-5.14 119.57-5.05 120.31-5 121.04-4.96 121.68-4.94 122.33-4.93 122.7-4.93L122.7-4.93Q125.72-4.93 128-5.69 130.27-6.45 131.89-7.67 133.51-8.89 134.59-10.42 135.66-11.96 136.28-13.53 136.91-15.09 137.15-16.53 137.39-17.97 137.39-18.99L137.39-18.99Q137.39-23.05 136.43-25.74 135.47-28.44 133.6-30.05 131.73-31.67 129.01-32.32 126.29-32.98 122.75-32.98L122.75-32.98Q122.28-32.98 121.61-32.96 120.94-32.93 120.21-32.91 119.47-32.89 118.75-32.84 118.03-32.79 117.47-32.76L117.47-32.76ZM166.03-1.88L166.03-1.88Q166.03-2.66 166.25-3.45 166.47-4.25 167.05-5.05L167.05-5.05Q167.47-5.76 168.19-7.2 168.91-8.64 169.81-10.6 170.72-12.55 171.75-14.86 172.79-17.16 173.86-19.57 174.94-21.97 176-24.38 177.06-26.78 178.01-28.89 178.97-31.01 179.75-32.71 180.53-34.42 181.07-35.47L181.07-35.47Q181.14-36.01 181.36-36.54 181.58-37.06 181.95-37.49 182.31-37.92 182.82-38.17 183.34-38.43 184.02-38.43L184.02-38.43Q184.9-38.43 185.45-38.18 186-37.94 186.35-37.51 186.71-37.08 186.93-36.52 187.15-35.96 187.37-35.33L187.37-35.33Q187.56-34.77 187.73-34.27 187.9-33.76 188.05-33.5L188.05-33.5Q189.68-30.22 191.24-26.9 192.79-23.58 194.31-20.15 195.84-16.72 197.4-13.21 198.96-9.69 200.65-6.05L200.65-6.05 201.11-5.37Q201.31-5.1 201.57-4.72 201.84-4.35 202.07-3.91 202.31-3.47 202.47-2.98 202.62-2.49 202.62-2L202.62-2Q202.62-0.54 201.79 0.09 200.96 0.71 199.77 0.71L199.77 0.71Q199.11 0.71 198.56 0.5 198.01 0.29 197.59-0.06 197.18-0.42 196.94-0.89 196.69-1.37 196.62-1.9L196.62-1.9Q195.93-3.39 195.35-4.7 194.76-6.01 194.21-7.23 193.66-8.45 193.15-9.61 192.64-10.77 192.13-11.94L192.13-11.94Q191.74-11.94 191.03-11.95 190.32-11.96 189.44-12.01L189.44-12.01Q188.05-12.01 186.62-12.04 185.19-12.06 183.7-12.07 182.21-12.08 180.63-12.07 179.04-12.06 177.31-11.99L177.31-11.99Q177.04-11.96 176.79-11.95 176.55-11.94 176.28-11.94L176.28-11.94Q175.6-10.28 174.99-8.78 174.38-7.28 173.89-6.01 173.4-4.74 173.02-3.75 172.64-2.76 172.45-2.15L172.45-2.15 172.45-2.17Q172.3-1.64 172.12-1.12 171.94-0.61 171.59-0.21 171.25 0.2 170.65 0.45 170.06 0.71 169.08 0.71L169.08 0.71Q167.76 0.71 166.89 0.05 166.03-0.61 166.03-1.88ZM178.5-17.26L178.5-17.26Q179.02-17.26 179.83-17.26 180.65-17.26 181.96-17.25 183.26-17.24 185.17-17.22 187.07-17.21 189.78-17.19L189.78-17.19Q188.66-19.63 187.24-22.69 185.83-25.76 183.9-29.83L183.9-29.83Q183.34-28.59 182.7-27.1 182.07-25.61 181.37-24 180.68-22.39 179.96-20.68 179.24-18.97 178.5-17.26ZM227.57-1.81L227.57-1.81Q227.57-3.05 227.66-4.27 227.74-5.49 227.74-6.88L227.74-6.88Q227.74-7.28 227.74-7.78 227.74-8.28 227.73-9.27 227.72-10.25 227.69-11.93 227.67-13.6 227.63-16.36 227.59-19.12 227.55-23.16 227.5-27.2 227.42-32.91L227.42-32.91Q227.42-33.59 227.24-34.29 227.06-34.99 227.06-35.77L227.06-35.77Q227.06-36.4 227.22-36.89 227.38-37.38 227.8-37.72 228.23-38.06 228.94-38.24 229.65-38.43 230.74-38.43L230.74-38.43Q231.31-38.43 231.72-38.2 232.14-37.96 232.42-37.59 232.7-37.21 232.83-36.74 232.97-36.28 232.97-35.82L232.97-35.82Q232.97-34.72 232.89-33.58 232.82-32.45 232.82-31.01L232.82-31.01 232.82-25.61Q235.36-25.54 237.7-25.46 240.05-25.39 242.59-25.39L242.59-25.39Q244.34-25.39 246.1-25.52 247.86-25.66 249.79-25.71L249.79-25.71Q249.79-26.17 249.8-26.75 249.81-27.32 249.81-28.15 249.81-28.98 249.81-30.13 249.81-31.27 249.81-32.91L249.81-32.91Q249.81-33.62 249.67-34.33 249.52-35.03 249.52-35.77L249.52-35.77Q249.52-36.4 249.68-36.89 249.84-37.38 250.26-37.72 250.69-38.06 251.41-38.24 252.13-38.43 253.23-38.43L253.23-38.43Q253.82-38.43 254.23-38.16 254.65-37.89 254.9-37.49 255.16-37.08 255.27-36.63 255.38-36.18 255.38-35.82L255.38-35.82Q255.38-33.96 255.27-32.09 255.16-30.22 255.11-28.15L255.11-28.15Q255.11-26.46 255.11-24.78 255.11-23.1 255.12-21.31 255.13-19.53 255.13-17.6 255.13-15.67 255.13-13.55L255.13-13.55Q255.13-11.08 255.19-9.39 255.26-7.69 255.34-6.53 255.43-5.37 255.52-4.66 255.62-3.96 255.7-3.47L255.7-3.47Q255.77-3.05 255.82-2.66 255.87-2.27 255.87-1.83L255.87-1.83Q255.87-1.27 255.73-0.81 255.6-0.34 255.27-0.01 254.94 0.32 254.38 0.51 253.82 0.71 252.96 0.71L252.96 0.71Q251.98 0.71 251.35 0.55 250.71 0.39 250.34 0.06 249.96-0.27 249.8-0.73 249.64-1.2 249.64-1.83L249.64-1.83Q249.64-3.1 249.82-4.35 250.01-5.59 250.01-6.91L250.01-6.91Q250.01-10.11 249.9-13.38 249.79-16.65 249.76-20.41L249.76-20.41Q248.03-20.43 245.78-20.42 243.54-20.41 241.21-20.37 238.87-20.34 236.69-20.28 234.5-20.21 232.87-20.19L232.87-20.19Q232.92-16.26 232.99-13.59 233.06-10.91 233.14-9.14 233.21-7.37 233.3-6.31 233.38-5.25 233.45-4.57L233.45-4.57Q233.53-3.91 233.56-3.3 233.6-2.69 233.6-1.81L233.6-1.81Q233.6-1.25 233.48-0.79 233.36-0.34 233.03 0 232.7 0.34 232.15 0.52 231.6 0.71 230.72 0.71L230.72 0.71Q229.74 0.71 229.13 0.55 228.52 0.39 228.17 0.07 227.81-0.24 227.69-0.71 227.57-1.17 227.57-1.81ZM261.55-1.88L261.55-1.88Q261.55-2.66 261.77-3.45 261.99-4.25 262.58-5.05L262.58-5.05Q262.99-5.76 263.71-7.2 264.43-8.64 265.34-10.6 266.24-12.55 267.28-14.86 268.31-17.16 269.39-19.57 270.46-21.97 271.53-24.38 272.59-26.78 273.54-28.89 274.49-31.01 275.27-32.71 276.05-34.42 276.59-35.47L276.59-35.47Q276.66-36.01 276.88-36.54 277.1-37.06 277.47-37.49 277.84-37.92 278.35-38.17 278.86-38.43 279.55-38.43L279.55-38.43Q280.42-38.43 280.97-38.18 281.52-37.94 281.88-37.51 282.23-37.08 282.45-36.52 282.67-35.96 282.89-35.33L282.89-35.33Q283.09-34.77 283.26-34.27 283.43-33.76 283.57-33.5L283.57-33.5Q285.21-30.22 286.76-26.9 288.31-23.58 289.84-20.15 291.36-16.72 292.92-13.21 294.49-9.69 296.17-6.05L296.17-6.05 296.64-5.37Q296.83-5.1 297.1-4.72 297.37-4.35 297.6-3.91 297.83-3.47 297.99-2.98 298.15-2.49 298.15-2L298.15-2Q298.15-0.54 297.32 0.09 296.49 0.71 295.29 0.71L295.29 0.71Q294.63 0.71 294.08 0.5 293.53 0.29 293.12-0.06 292.7-0.42 292.46-0.89 292.22-1.37 292.14-1.9L292.14-1.9Q291.46-3.39 290.87-4.7 290.29-6.01 289.74-7.23 289.19-8.45 288.68-9.61 288.16-10.77 287.65-11.94L287.65-11.94Q287.26-11.94 286.55-11.95 285.84-11.96 284.97-12.01L284.97-12.01Q283.57-12.01 282.15-12.04 280.72-12.06 279.23-12.07 277.74-12.08 276.15-12.07 274.56-12.06 272.83-11.99L272.83-11.99Q272.56-11.96 272.32-11.95 272.07-11.94 271.81-11.94L271.81-11.94Q271.12-10.28 270.51-8.78 269.9-7.28 269.41-6.01 268.93-4.74 268.55-3.75 268.17-2.76 267.97-2.15L267.97-2.15 267.97-2.17Q267.83-1.64 267.64-1.12 267.46-0.61 267.12-0.21 266.78 0.2 266.18 0.45 265.58 0.71 264.6 0.71L264.6 0.71Q263.29 0.71 262.42 0.05 261.55-0.61 261.55-1.88ZM274.03-17.26L274.03-17.26Q274.54-17.26 275.36-17.26 276.18-17.26 277.48-17.25 278.79-17.24 280.69-17.22 282.6-17.21 285.31-17.19L285.31-17.19Q284.18-19.63 282.77-22.69 281.35-25.76 279.42-29.83L279.42-29.83Q278.86-28.59 278.23-27.1 277.59-25.61 276.9-24 276.2-22.39 275.48-20.68 274.76-18.97 274.03-17.26ZM303.93-1.56L303.93-1.56Q303.93-2.59 304.08-3.3 304.23-4 304.25-3.96L304.25-3.96Q304.3-6.62 304.34-9.35 304.37-12.08 304.37-15.14L304.37-15.14Q304.37-17.07 304.37-19.32 304.37-21.58 304.34-23.89 304.3-26.2 304.23-28.43 304.15-30.66 304.03-32.57L304.03-32.57Q303.93-33.13 303.88-33.58 303.83-34.03 303.83-34.55L303.83-34.55Q303.83-35.74 304.35-36.44 304.86-37.13 306.01-37.4L306.01-37.4Q306.5-37.82 307.09-37.98 307.69-38.13 308.25-38.13L308.25-38.13Q308.84-38.13 309.32-37.79 309.79-37.45 310.16-36.99 310.52-36.52 310.77-36.02 311.01-35.52 311.11-35.21L311.11-35.21Q311.87-34.08 312.93-32.64 313.99-31.2 315.25-29.55 316.51-27.91 317.92-26.11 319.34-24.32 320.79-22.49 322.24-20.65 323.68-18.84 325.12-17.02 326.42-15.33 327.71-13.65 328.83-12.15 329.96-10.64 330.76-9.45L330.76-9.45Q330.76-14.67 330.73-18.44 330.69-22.22 330.64-24.87 330.59-27.51 330.52-29.22 330.45-30.93 330.4-32.06 330.35-33.18 330.31-33.9 330.28-34.62 330.28-35.28L330.28-35.28Q330.28-36.25 330.48-36.88 330.69-37.5 331.07-37.84 331.45-38.18 332.01-38.31 332.57-38.43 333.3-38.43L333.3-38.43Q334.25-38.43 334.79-38.04 335.33-37.65 335.61-37.05 335.89-36.45 335.95-35.71 336.01-34.96 336.01-34.25L336.01-34.25 336.01-6.25Q336.01-5.37 336.11-4.48 336.21-3.59 336.21-2.59L336.21-2.59Q336.21-1.64 336.06-1.01 335.92-0.39 335.59 0 335.26 0.39 334.73 0.55 334.21 0.71 333.47 0.71L333.47 0.71Q332.11 0.71 331.29 0.02 330.47-0.66 330.13-1.64L330.13-1.64Q327.81-4.81 325.43-7.9 323.05-10.99 320.63-14.07 318.21-17.16 315.77-20.3 313.33-23.44 310.92-26.68L310.92-26.68 309.45-28.98Q309.47-25.24 309.5-22.33 309.52-19.41 309.55-17.13 309.57-14.84 309.6-13.1 309.62-11.35 309.63-9.97 309.65-8.59 309.66-7.46 309.67-6.32 309.67-5.25L309.67-5.25Q309.69-4.61 309.76-3.89 309.82-3.17 309.82-2.49L309.82-2.49Q309.82-1.86 309.71-1.27 309.6-0.68 309.28-0.24 308.96 0.2 308.39 0.45 307.81 0.71 306.89 0.71L306.89 0.71Q305.64 0.71 304.79 0.1 303.93-0.51 303.93-1.56ZM346.65-2.86L346.65-2.86Q346.65-3.98 346.75-5.05 346.85-6.13 346.85-7.57L346.85-7.57Q346.85-14.06 346.81-20.58 346.78-27.1 346.58-33.76L346.58-33.76Q346.31-34.28 346.11-34.89 345.9-35.5 345.9-35.94L345.9-35.94Q345.9-36.99 346.47-37.71 347.05-38.43 348.44-38.43L348.44-38.43Q349.14-38.43 349.83-38.24 350.51-38.06 351.29-38.06L351.29-38.06Q353-38.06 354.69-38.24 356.37-38.43 358.13-38.43L358.13-38.43Q361.72-38.43 364.56-37.73 367.41-37.04 369.56-35.8 371.7-34.57 373.22-32.87 374.73-31.18 375.67-29.16 376.61-27.15 377.05-24.89 377.49-22.63 377.49-20.31L377.49-20.31Q377.49-18.24 377.06-15.88 376.64-13.53 375.66-11.22 374.68-8.91 373.12-6.8 371.56-4.69 369.26-3.08 366.97-1.46 363.9-0.5 360.84 0.46 356.88 0.46L356.88 0.46Q355.96 0.46 355.04 0.38 354.13 0.29 353.2 0.18 352.27 0.07 351.33-0.01 350.39-0.1 349.41-0.1L349.41-0.1Q347.92-0.1 347.29-0.78 346.65-1.46 346.65-2.86ZM351.95-32.76L352.1-5.37Q352.61-5.22 353.33-5.14 354.05-5.05 354.78-5 355.52-4.96 356.16-4.94 356.81-4.93 357.18-4.93L357.18-4.93Q360.2-4.93 362.48-5.69 364.75-6.45 366.37-7.67 367.99-8.89 369.07-10.42 370.14-11.96 370.76-13.53 371.39-15.09 371.63-16.53 371.87-17.97 371.87-18.99L371.87-18.99Q371.87-23.05 370.91-25.74 369.95-28.44 368.08-30.05 366.21-31.67 363.49-32.32 360.77-32.98 357.23-32.98L357.23-32.98Q356.76-32.98 356.09-32.96 355.42-32.93 354.69-32.91 353.95-32.89 353.23-32.84 352.51-32.79 351.95-32.76L351.95-32.76ZM396.63-10.25L396.63-10.25Q394.99-10.25 394.39-11.58 393.8-12.92 393.8-15.31L393.8-15.31Q393.8-16.7 394.27-17.97 394.75-19.24 395.52-20.39 396.29-21.53 397.24-22.55 398.19-23.56 399.17-24.41L399.17-24.41Q400.17-25.29 401.29-26.18 402.41-27.08 403.35-28.04 404.29-29 404.92-30.07 405.54-31.13 405.54-32.37L405.54-32.37Q405.54-33.91 404.89-35.02 404.24-36.13 403.11-36.84 401.97-37.55 400.41-37.88 398.85-38.21 397.02-38.21L397.02-38.21Q395.19-38.21 393.72-37.98 392.26-37.74 391.23-37.26 390.21-36.77 389.66-36.02 389.11-35.28 389.11-34.23L389.11-34.23Q389.11-33.64 389.3-33.2 389.5-32.76 389.84-32.2L389.84-32.2Q390.11-31.71 390.37-31.23 390.62-30.74 390.62-30.1L390.62-30.1Q390.62-29.52 390.41-29.05 390.21-28.59 389.84-28.28 389.47-27.98 389-27.81 388.52-27.64 387.99-27.64L387.99-27.64Q387.03-27.64 386.23-28.31 385.42-28.98 384.85-29.97 384.27-30.96 383.94-32.08 383.62-33.2 383.62-34.13L383.62-34.13Q383.62-36.38 384.62-38.11 385.62-39.84 387.4-41.03 389.18-42.21 391.64-42.82 394.09-43.43 396.97-43.43L396.97-43.43Q399.9-43.43 402.46-42.74 405.03-42.04 406.93-40.65 408.83-39.26 409.93-37.19 411.03-35.13 411.03-32.42L411.03-32.42Q411.03-30.96 410.57-29.58 410.1-28.2 409.29-26.94 408.47-25.68 407.37-24.55 406.27-23.41 405-22.46L405-22.46Q404.12-21.78 403.11-21.04 402.1-20.31 401.23-19.46 400.36-18.6 399.79-17.6 399.22-16.6 399.22-15.36L399.22-15.36Q399.22-14.82 399.25-14.27 399.29-13.72 399.29-13.04L399.29-13.04Q399.29-12.35 399.07-11.83 398.85-11.3 398.48-10.96 398.12-10.62 397.63-10.44 397.14-10.25 396.63-10.25ZM393.11-2.08L393.11-2.08Q393.14-3.56 393.3-4.58 393.45-5.59 393.83-6.19 394.21-6.79 394.85-7.04 395.48-7.3 396.48-7.3L396.48-7.3Q397.31-7.3 397.82-7.01 398.34-6.71 398.59-6.29 398.85-5.86 398.93-5.38 399.02-4.91 399.02-4.57L399.02-4.57Q399.02-2 398.12-0.61 397.21 0.78 395.82 0.78L395.82 0.78Q395.16 0.78 394.65 0.49 394.14 0.2 393.8-0.23 393.45-0.66 393.28-1.16 393.11-1.66 393.11-2.08ZM437.54-2.71L437.54-2.71Q437.54-3.42 437.75-4.11 437.96-4.81 437.96-5.59L437.96-5.59 437.59-34.74Q437.61-36.6 438.24-37.49 438.86-38.38 440.37-38.38L440.37-38.38Q441.2-38.38 441.76-38.23 442.33-38.09 442.67-37.72 443.01-37.35 443.14-36.77 443.28-36.18 443.28-35.3L443.28-35.3 443.28-31.64Q443.28-30.13 443.27-28.04 443.25-25.95 443.25-23.58 443.25-21.22 443.25-18.69 443.25-16.16 443.25-13.76 443.25-11.35 443.25-9.2 443.25-7.06 443.28-5.44L443.28-5.44Q446.13-5.44 448.1-5.46 450.07-5.47 451.33-5.52L451.33-5.52Q452.02-5.57 452.7-5.68 453.39-5.79 454.17-5.79L454.17-5.79Q455.78-5.79 456.62-5.05 457.46-4.32 457.46-2.91L457.46-2.91Q457.46-1.95 457.1-1.38 456.73-0.81 456.13-0.5 455.53-0.2 454.79-0.1 454.04 0 453.29 0L453.29 0 440.32 0Q439.71 0 439.2-0.11 438.69-0.22 438.32-0.51 437.96-0.81 437.75-1.33 437.54-1.86 437.54-2.71ZM464.37-2.76L464.37-2.76Q464.37-3.17 464.48-3.64 464.59-4.1 464.71-4.49L464.71-4.49 464.93-5.27 464.37-34.47Q464.37-35.67 464.65-36.33 464.93-36.99 465.37-37.3 465.81-37.62 466.38-37.67 466.96-37.72 467.54-37.72L467.54-37.72 480.41-37.72Q480.85-37.77 481.4-37.85 481.95-37.94 482.17-37.94L482.17-37.94Q483.09-37.94 483.67-37.77 484.24-37.6 484.57-37.27 484.9-36.94 485.01-36.45 485.12-35.96 485.12-35.3L485.12-35.3Q485.12-34.38 484.89-33.81 484.66-33.25 484.25-32.95 483.85-32.64 483.31-32.54 482.78-32.45 482.17-32.45L482.17-32.45Q481.9-32.45 481.46-32.46 481.02-32.47 480.53-32.52L480.53-32.52Q478.16-32.52 476.71-32.52 475.26-32.52 474.39-32.51 473.52-32.5 473.07-32.5 472.62-32.5 472.28-32.5L472.28-32.5 470.01-32.5 470.01-24.76Q470.16-24.76 470.36-24.74 470.57-24.73 471.01-24.73 471.45-24.73 472.22-24.73 472.99-24.73 474.28-24.73 475.58-24.73 477.48-24.73 479.38-24.73 482.09-24.73L482.09-24.73Q482.36-24.73 482.7-24.76 483.05-24.78 483.39-24.83L483.39-24.83Q483.83-24.88 484.41-24.93 485-24.98 485.68-24.98L485.68-24.98Q486.34-24.98 486.85-24.71 487.37-24.44 487.72-24.04 488.08-23.63 488.26-23.17 488.44-22.71 488.44-22.29L488.44-22.29Q488.44-20.97 487.57-20.36 486.71-19.75 485.34-19.75L485.34-19.75 470.01-19.73 470.01-5.1Q472.43-5.1 474.87-5.03 477.31-4.96 479.97-4.96L479.97-4.96Q480.7-4.96 481.31-5.03 481.92-5.1 482.48-5.2L482.48-5.2Q483-5.27 483.52-5.33 484.05-5.4 484.68-5.4L484.68-5.4Q485.41-5.4 486.04-5.29 486.66-5.18 487.12-4.9 487.59-4.61 487.86-4.14 488.12-3.66 488.12-2.93L488.12-2.93Q488.12-1.86 487.76-1.27 487.39-0.68 486.77-0.4 486.15-0.12 485.35-0.06 484.56 0 483.71 0L483.71 0 467.27 0Q466.64 0 466.11-0.15 465.59-0.29 465.2-0.62 464.81-0.95 464.59-1.48 464.37-2 464.37-2.76ZM496.74-1.56L496.74-1.56Q496.74-2.59 496.89-3.3 497.03-4 497.06-3.96L497.06-3.96Q497.11-6.62 497.14-9.35 497.18-12.08 497.18-15.14L497.18-15.14Q497.18-17.07 497.18-19.32 497.18-21.58 497.14-23.89 497.11-26.2 497.03-28.43 496.96-30.66 496.84-32.57L496.84-32.57Q496.74-33.13 496.69-33.58 496.64-34.03 496.64-34.55L496.64-34.55Q496.64-35.74 497.15-36.44 497.67-37.13 498.82-37.4L498.82-37.4Q499.3-37.82 499.9-37.98 500.5-38.13 501.06-38.13L501.06-38.13Q501.65-38.13 502.12-37.79 502.6-37.45 502.97-36.99 503.33-36.52 503.58-36.02 503.82-35.52 503.92-35.21L503.92-35.21Q504.67-34.08 505.74-32.64 506.8-31.2 508.06-29.55 509.31-27.91 510.73-26.11 512.15-24.32 513.6-22.49 515.05-20.65 516.49-18.84 517.93-17.02 519.23-15.33 520.52-13.65 521.64-12.15 522.77-10.64 523.57-9.45L523.57-9.45Q523.57-14.67 523.53-18.44 523.5-22.22 523.45-24.87 523.4-27.51 523.33-29.22 523.25-30.93 523.2-32.06 523.16-33.18 523.12-33.9 523.08-34.62 523.08-35.28L523.08-35.28Q523.08-36.25 523.29-36.88 523.5-37.5 523.88-37.84 524.25-38.18 524.82-38.31 525.38-38.43 526.11-38.43L526.11-38.43Q527.06-38.43 527.6-38.04 528.14-37.65 528.42-37.05 528.7-36.45 528.76-35.71 528.82-34.96 528.82-34.25L528.82-34.25 528.82-6.25Q528.82-5.37 528.92-4.48 529.02-3.59 529.02-2.59L529.02-2.59Q529.02-1.64 528.87-1.01 528.72-0.39 528.39 0 528.06 0.39 527.54 0.55 527.01 0.71 526.28 0.71L526.28 0.71Q524.91 0.71 524.1 0.02 523.28-0.66 522.94-1.64L522.94-1.64Q520.62-4.81 518.24-7.9 515.86-10.99 513.44-14.07 511.02-17.16 508.58-20.3 506.14-23.44 503.72-26.68L503.72-26.68 502.26-28.98Q502.28-25.24 502.31-22.33 502.33-19.41 502.36-17.13 502.38-14.84 502.4-13.1 502.43-11.35 502.44-9.97 502.45-8.59 502.46-7.46 502.48-6.32 502.48-5.25L502.48-5.25Q502.5-4.61 502.56-3.89 502.62-3.17 502.62-2.49L502.62-2.49Q502.62-1.86 502.51-1.27 502.4-0.68 502.09-0.24 501.77 0.2 501.2 0.45 500.62 0.71 499.69 0.71L499.69 0.71Q498.45 0.71 497.59 0.1 496.74-0.51 496.74-1.56ZM539.46-2.86L539.46-2.86Q539.46-3.98 539.56-5.05 539.66-6.13 539.66-7.57L539.66-7.57Q539.66-14.06 539.62-20.58 539.58-27.1 539.39-33.76L539.39-33.76Q539.12-34.28 538.91-34.89 538.71-35.5 538.71-35.94L538.71-35.94Q538.71-36.99 539.28-37.71 539.85-38.43 541.24-38.43L541.24-38.43Q541.95-38.43 542.64-38.24 543.32-38.06 544.1-38.06L544.1-38.06Q545.81-38.06 547.49-38.24 549.18-38.43 550.94-38.43L550.94-38.43Q554.53-38.43 557.37-37.73 560.21-37.04 562.36-35.8 564.51-34.57 566.02-32.87 567.54-31.18 568.48-29.16 569.42-27.15 569.86-24.89 570.3-22.63 570.3-20.31L570.3-20.31Q570.3-18.24 569.87-15.88 569.44-13.53 568.47-11.22 567.49-8.91 565.93-6.8 564.36-4.69 562.07-3.08 559.77-1.46 556.71-0.5 553.65 0.46 549.69 0.46L549.69 0.46Q548.76 0.46 547.85 0.38 546.93 0.29 546 0.18 545.08 0.07 544.14-0.01 543.2-0.1 542.22-0.1L542.22-0.1Q540.73-0.1 540.1-0.78 539.46-1.46 539.46-2.86ZM544.76-32.76L544.91-5.37Q545.42-5.22 546.14-5.14 546.86-5.05 547.59-5 548.32-4.96 548.97-4.94 549.62-4.93 549.98-4.93L549.98-4.93Q553.01-4.93 555.28-5.69 557.55-6.45 559.18-7.67 560.8-8.89 561.87-10.42 562.95-11.96 563.57-13.53 564.19-15.09 564.44-16.53 564.68-17.97 564.68-18.99L564.68-18.99Q564.68-23.05 563.72-25.74 562.75-28.44 560.89-30.05 559.02-31.67 556.3-32.32 553.57-32.98 550.03-32.98L550.03-32.98Q549.57-32.98 548.9-32.96 548.23-32.93 547.49-32.91 546.76-32.89 546.04-32.84 545.32-32.79 544.76-32.76L544.76-32.76ZM593.31-1.88L593.31-1.88Q593.31-2.66 593.53-3.45 593.75-4.25 594.34-5.05L594.34-5.05Q594.75-5.76 595.48-7.2 596.2-8.64 597.1-10.6 598-12.55 599.04-14.86 600.08-17.16 601.15-19.57 602.23-21.97 603.29-24.38 604.35-26.78 605.3-28.89 606.25-31.01 607.04-32.71 607.82-34.42 608.35-35.47L608.35-35.47Q608.43-36.01 608.65-36.54 608.87-37.06 609.23-37.49 609.6-37.92 610.11-38.17 610.62-38.43 611.31-38.43L611.31-38.43Q612.19-38.43 612.74-38.18 613.29-37.94 613.64-37.51 613.99-37.08 614.21-36.52 614.43-35.96 614.65-35.33L614.65-35.33Q614.85-34.77 615.02-34.27 615.19-33.76 615.34-33.5L615.34-33.5Q616.97-30.22 618.52-26.9 620.07-23.58 621.6-20.15 623.12-16.72 624.69-13.21 626.25-9.69 627.93-6.05L627.93-6.05 628.4-5.37Q628.59-5.1 628.86-4.72 629.13-4.35 629.36-3.91 629.59-3.47 629.75-2.98 629.91-2.49 629.91-2L629.91-2Q629.91-0.54 629.08 0.09 628.25 0.71 627.05 0.71L627.05 0.71Q626.4 0.71 625.85 0.5 625.3 0.29 624.88-0.06 624.47-0.42 624.22-0.89 623.98-1.37 623.91-1.9L623.91-1.9Q623.22-3.39 622.64-4.7 622.05-6.01 621.5-7.23 620.95-8.45 620.44-9.61 619.93-10.77 619.41-11.94L619.41-11.94Q619.02-11.94 618.31-11.95 617.61-11.96 616.73-12.01L616.73-12.01Q615.34-12.01 613.91-12.04 612.48-12.06 610.99-12.07 609.5-12.08 607.91-12.07 606.33-12.06 604.59-11.99L604.59-11.99Q604.33-11.96 604.08-11.95 603.84-11.94 603.57-11.94L603.57-11.94Q602.88-10.28 602.27-8.78 601.66-7.28 601.18-6.01 600.69-4.74 600.31-3.75 599.93-2.76 599.74-2.15L599.74-2.15 599.74-2.17Q599.59-1.64 599.41-1.12 599.22-0.61 598.88-0.21 598.54 0.2 597.94 0.45 597.34 0.71 596.37 0.71L596.37 0.71Q595.05 0.71 594.18 0.05 593.31-0.61 593.31-1.88ZM605.79-17.26L605.79-17.26Q606.3-17.26 607.12-17.26 607.94-17.26 609.24-17.25 610.55-17.24 612.45-17.22 614.36-17.21 617.07-17.19L617.07-17.19Q615.95-19.63 614.53-22.69 613.11-25.76 611.19-29.83L611.19-29.83Q610.62-28.59 609.99-27.1 609.35-25.61 608.66-24 607.96-22.39 607.24-20.68 606.52-18.97 605.79-17.26ZM654.86-1.81L654.86-1.81Q654.86-3.05 654.94-4.27 655.03-5.49 655.03-6.88L655.03-6.88Q655.03-7.28 655.03-7.78 655.03-8.28 655.02-9.27 655-10.25 654.98-11.93 654.95-13.6 654.92-16.36 654.88-19.12 654.83-23.16 654.78-27.2 654.71-32.91L654.71-32.91Q654.71-33.59 654.53-34.29 654.34-34.99 654.34-35.77L654.34-35.77Q654.34-36.4 654.5-36.89 654.66-37.38 655.09-37.72 655.52-38.06 656.22-38.24 656.93-38.43 658.03-38.43L658.03-38.43Q658.59-38.43 659.01-38.2 659.42-37.96 659.7-37.59 659.98-37.21 660.12-36.74 660.25-36.28 660.25-35.82L660.25-35.82Q660.25-34.72 660.18-33.58 660.11-32.45 660.11-31.01L660.11-31.01 660.11-25.61Q662.65-25.54 664.99-25.46 667.33-25.39 669.87-25.39L669.87-25.39Q671.63-25.39 673.39-25.52 675.15-25.66 677.07-25.71L677.07-25.71Q677.07-26.17 677.09-26.75 677.1-27.32 677.1-28.15 677.1-28.98 677.1-30.13 677.1-31.27 677.1-32.91L677.1-32.91Q677.1-33.62 676.95-34.33 676.81-35.03 676.81-35.77L676.81-35.77Q676.81-36.4 676.96-36.89 677.12-37.38 677.55-37.72 677.98-38.06 678.7-38.24 679.42-38.43 680.52-38.43L680.52-38.43Q681.1-38.43 681.52-38.16 681.93-37.89 682.19-37.49 682.45-37.08 682.55-36.63 682.66-36.18 682.66-35.82L682.66-35.82Q682.66-33.96 682.55-32.09 682.45-30.22 682.4-28.15L682.4-28.15Q682.4-26.46 682.4-24.78 682.4-23.1 682.41-21.31 682.42-19.53 682.42-17.6 682.42-15.67 682.42-13.55L682.42-13.55Q682.42-11.08 682.48-9.39 682.54-7.69 682.63-6.53 682.71-5.37 682.81-4.66 682.91-3.96 682.98-3.47L682.98-3.47Q683.06-3.05 683.1-2.66 683.15-2.27 683.15-1.83L683.15-1.83Q683.15-1.27 683.02-0.81 682.88-0.34 682.55-0.01 682.23 0.32 681.66 0.51 681.1 0.71 680.25 0.71L680.25 0.71Q679.27 0.71 678.64 0.55 678 0.39 677.62 0.06 677.24-0.27 677.09-0.73 676.93-1.2 676.93-1.83L676.93-1.83Q676.93-3.1 677.11-4.35 677.29-5.59 677.29-6.91L677.29-6.91Q677.29-10.11 677.18-13.38 677.07-16.65 677.05-20.41L677.05-20.41Q675.32-20.43 673.07-20.42 670.82-20.41 668.49-20.37 666.16-20.34 663.98-20.28 661.79-20.21 660.16-20.19L660.16-20.19Q660.2-16.26 660.28-13.59 660.35-10.91 660.42-9.14 660.5-7.37 660.58-6.31 660.67-5.25 660.74-4.57L660.74-4.57Q660.81-3.91 660.85-3.3 660.89-2.69 660.89-1.81L660.89-1.81Q660.89-1.25 660.77-0.79 660.64-0.34 660.31 0 659.98 0.34 659.43 0.52 658.89 0.71 658.01 0.71L658.01 0.71Q657.03 0.71 656.42 0.55 655.81 0.39 655.46 0.07 655.1-0.24 654.98-0.71 654.86-1.17 654.86-1.81ZM688.84-1.88L688.84-1.88Q688.84-2.66 689.06-3.45 689.28-4.25 689.86-5.05L689.86-5.05Q690.28-5.76 691-7.2 691.72-8.64 692.62-10.6 693.53-12.55 694.56-14.86 695.6-17.16 696.68-19.57 697.75-21.97 698.81-24.38 699.87-26.78 700.83-28.89 701.78-31.01 702.56-32.71 703.34-34.42 703.88-35.47L703.88-35.47Q703.95-36.01 704.17-36.54 704.39-37.06 704.76-37.49 705.12-37.92 705.64-38.17 706.15-38.43 706.83-38.43L706.83-38.43Q707.71-38.43 708.26-38.18 708.81-37.94 709.16-37.51 709.52-37.08 709.74-36.52 709.96-35.96 710.18-35.33L710.18-35.33Q710.37-34.77 710.54-34.27 710.71-33.76 710.86-33.5L710.86-33.5Q712.5-30.22 714.05-26.9 715.6-23.58 717.12-20.15 718.65-16.72 720.21-13.21 721.77-9.69 723.46-6.05L723.46-6.05 723.92-5.37Q724.12-5.1 724.39-4.72 724.65-4.35 724.89-3.91 725.12-3.47 725.28-2.98 725.44-2.49 725.44-2L725.44-2Q725.44-0.54 724.61 0.09 723.78 0.71 722.58 0.71L722.58 0.71Q721.92 0.71 721.37 0.5 720.82 0.29 720.41-0.06 719.99-0.42 719.75-0.89 719.5-1.37 719.43-1.9L719.43-1.9Q718.75-3.39 718.16-4.7 717.57-6.01 717.03-7.23 716.48-8.45 715.96-9.61 715.45-10.77 714.94-11.94L714.94-11.94Q714.55-11.94 713.84-11.95 713.13-11.96 712.25-12.01L712.25-12.01Q710.86-12.01 709.43-12.04 708-12.06 706.51-12.07 705.03-12.08 703.44-12.07 701.85-12.06 700.12-11.99L700.12-11.99Q699.85-11.96 699.61-11.95 699.36-11.94 699.09-11.94L699.09-11.94Q698.41-10.28 697.8-8.78 697.19-7.28 696.7-6.01 696.21-4.74 695.83-3.75 695.46-2.76 695.26-2.15L695.26-2.15 695.26-2.17Q695.11-1.64 694.93-1.12 694.75-0.61 694.41-0.21 694.06 0.2 693.47 0.45 692.87 0.71 691.89 0.71L691.89 0.71Q690.57 0.71 689.71 0.05 688.84-0.61 688.84-1.88ZM701.31-17.26L701.31-17.26Q701.83-17.26 702.65-17.26 703.46-17.26 704.77-17.25 706.08-17.24 707.98-17.22 709.88-17.21 712.59-17.19L712.59-17.19Q711.47-19.63 710.05-22.69 708.64-25.76 706.71-29.83L706.71-29.83Q706.15-28.59 705.51-27.1 704.88-25.61 704.18-24 703.49-22.39 702.77-20.68 702.05-18.97 701.31-17.26ZM731.22-1.56L731.22-1.56Q731.22-2.59 731.37-3.3 731.51-4 731.54-3.96L731.54-3.96Q731.59-6.62 731.62-9.35 731.66-12.08 731.66-15.14L731.66-15.14Q731.66-17.07 731.66-19.32 731.66-21.58 731.62-23.89 731.59-26.2 731.51-28.43 731.44-30.66 731.32-32.57L731.32-32.57Q731.22-33.13 731.17-33.58 731.12-34.03 731.12-34.55L731.12-34.55Q731.12-35.74 731.63-36.44 732.15-37.13 733.29-37.4L733.29-37.4Q733.78-37.82 734.38-37.98 734.98-38.13 735.54-38.13L735.54-38.13Q736.13-38.13 736.6-37.79 737.08-37.45 737.44-36.99 737.81-36.52 738.06-36.02 738.3-35.52 738.4-35.21L738.4-35.21Q739.15-34.08 740.22-32.64 741.28-31.2 742.54-29.55 743.79-27.91 745.21-26.11 746.62-24.32 748.08-22.49 749.53-20.65 750.97-18.84 752.41-17.02 753.7-15.33 755-13.65 756.12-12.15 757.24-10.64 758.05-9.45L758.05-9.45Q758.05-14.67 758.01-18.44 757.98-22.22 757.93-24.87 757.88-27.51 757.81-29.22 757.73-30.93 757.68-32.06 757.64-33.18 757.6-33.9 757.56-34.62 757.56-35.28L757.56-35.28Q757.56-36.25 757.77-36.88 757.98-37.5 758.36-37.84 758.73-38.18 759.3-38.31 759.86-38.43 760.59-38.43L760.59-38.43Q761.54-38.43 762.08-38.04 762.62-37.65 762.9-37.05 763.18-36.45 763.24-35.71 763.3-34.96 763.3-34.25L763.3-34.25 763.3-6.25Q763.3-5.37 763.4-4.48 763.49-3.59 763.49-2.59L763.49-2.59Q763.49-1.64 763.35-1.01 763.2-0.39 762.87 0 762.54 0.39 762.02 0.55 761.49 0.71 760.76 0.71L760.76 0.71Q759.39 0.71 758.58 0.02 757.76-0.66 757.42-1.64L757.42-1.64Q755.1-4.81 752.72-7.9 750.34-10.99 747.92-14.07 745.5-17.16 743.06-20.3 740.62-23.44 738.2-26.68L738.2-26.68 736.74-28.98Q736.76-25.24 736.79-22.33 736.81-19.41 736.83-17.13 736.86-14.84 736.88-13.1 736.91-11.35 736.92-9.97 736.93-8.59 736.94-7.46 736.96-6.32 736.96-5.25L736.96-5.25Q736.98-4.61 737.04-3.89 737.1-3.17 737.1-2.49L737.1-2.49Q737.1-1.86 736.99-1.27 736.88-0.68 736.57-0.24 736.25 0.2 735.67 0.45 735.1 0.71 734.17 0.71L734.17 0.71Q732.93 0.71 732.07 0.1 731.22-0.51 731.22-1.56ZM773.94-2.86L773.94-2.86Q773.94-3.98 774.04-5.05 774.14-6.13 774.14-7.57L774.14-7.57Q774.14-14.06 774.1-20.58 774.06-27.1 773.87-33.76L773.87-33.76Q773.6-34.28 773.39-34.89 773.18-35.5 773.18-35.94L773.18-35.94Q773.18-36.99 773.76-37.71 774.33-38.43 775.72-38.43L775.72-38.43Q776.43-38.43 777.12-38.24 777.8-38.06 778.58-38.06L778.58-38.06Q780.29-38.06 781.97-38.24 783.66-38.43 785.42-38.43L785.42-38.43Q789-38.43 791.85-37.73 794.69-37.04 796.84-35.8 798.99-34.57 800.5-32.87 802.02-31.18 802.96-29.16 803.9-27.15 804.34-24.89 804.78-22.63 804.78-20.31L804.78-20.31Q804.78-18.24 804.35-15.88 803.92-13.53 802.95-11.22 801.97-8.91 800.41-6.8 798.84-4.69 796.55-3.08 794.25-1.46 791.19-0.5 788.13 0.46 784.17 0.46L784.17 0.46Q783.24 0.46 782.33 0.38 781.41 0.29 780.48 0.18 779.56 0.07 778.62-0.01 777.68-0.1 776.7-0.1L776.7-0.1Q775.21-0.1 774.58-0.78 773.94-1.46 773.94-2.86ZM779.24-32.76L779.39-5.37Q779.9-5.22 780.62-5.14 781.34-5.05 782.07-5 782.8-4.96 783.45-4.94 784.1-4.93 784.46-4.93L784.46-4.93Q787.49-4.93 789.76-5.69 792.03-6.45 793.66-7.67 795.28-8.89 796.35-10.42 797.43-11.96 798.05-13.53 798.67-15.09 798.92-16.53 799.16-17.97 799.16-18.99L799.16-18.99Q799.16-23.05 798.2-25.74 797.23-28.44 795.36-30.05 793.5-31.67 790.78-32.32 788.05-32.98 784.51-32.98L784.51-32.98Q784.05-32.98 783.38-32.96 782.71-32.93 781.97-32.91 781.24-32.89 780.52-32.84 779.8-32.79 779.24-32.76L779.24-32.76ZM812.29-2.39L812.29-2.39Q812.29-3.03 812.4-3.98 812.51-4.93 812.86-5.81 813.2-6.69 813.83-7.32 814.47-7.96 815.52-7.96L815.52-7.96Q816.57-7.96 817.14-7.5 817.71-7.03 817.98-6.41 818.25-5.79 818.31-5.15 818.37-4.52 818.37-4.15L818.37-4.15 818.37-4Q818.37-2.91 818.23-2.05 818.08-1.2 817.73-0.61 817.37-0.02 816.79 0.29 816.2 0.61 815.32 0.61L815.32 0.61Q814.49 0.61 813.92 0.35 813.34 0.1 812.98-0.32 812.61-0.73 812.45-1.27 812.29-1.81 812.29-2.39Z" opacity="1" transform="matrix(1,0,0,1,0,0)" fill="#1e55b3" class="wordmark-text-0" data-fill-palette-color="primary" id="text-0"/>
                              </svg>
                            </g>
                          </svg>
                        </g>
                        <g transform="matrix(1,0,0,1,0,26.568984026849115)">
                          <svg viewBox="0 0 202.90176 11.16895450731087" height="11.16895450731087" width="202.90176">
                            <g transform="matrix(1,0,0,1,8,0)">
                              <svg width="186.90176" viewBox="0.85 -37 786.42 47" height="11.16895450731087" data-palette-color="#ff000d">
                                <path d="M2.7-25.7L2.7-25.7 14.45-25.7Q15.25-25.7 15.78-25.15 16.3-24.6 16.3-23.85L16.3-23.85Q16.3-23.05 15.78-22.53 15.25-22 14.45-22L14.45-22 2.7-22Q1.95-22 1.4-22.55 0.85-23.1 0.85-23.9L0.85-23.9Q0.85-24.65 1.4-25.18 1.95-25.7 2.7-25.7ZM7.95-32.5L7.95-32.5Q8.8-32.5 9.35-31.93 9.9-31.35 9.9-30.5L9.9-30.5 9.9-6.35Q9.9-5.15 10.25-4.55 10.6-3.95 11.18-3.73 11.75-3.5 12.3-3.5L12.3-3.5Q12.8-3.5 13.18-3.68 13.55-3.85 14.05-3.85L14.05-3.85Q14.55-3.85 14.98-3.38 15.4-2.9 15.4-2.15L15.4-2.15Q15.4-1.25 14.35-0.63 13.3 0 12 0L12 0Q11.3 0 10.28-0.1 9.25-0.2 8.25-0.75 7.25-1.3 6.58-2.58 5.9-3.85 5.9-6.15L5.9-6.15 5.9-30.5Q5.9-31.35 6.5-31.93 7.1-32.5 7.95-32.5ZM34.35-26.25L34.35-26.25Q37.65-26.25 39.57-24.83 41.5-23.4 42.32-21.03 43.15-18.65 43.15-15.75L43.15-15.75 43.15-2.05Q43.15-1.2 42.57-0.6 42 0 41.15 0L41.15 0Q40.3 0 39.72-0.6 39.15-1.2 39.15-2.05L39.15-2.05 39.15-15.75Q39.15-17.65 38.6-19.18 38.05-20.7 36.77-21.63 35.5-22.55 33.3-22.55L33.3-22.55Q31.25-22.55 29.55-21.63 27.85-20.7 26.85-19.18 25.85-17.65 25.85-15.75L25.85-15.75 25.85-2.05Q25.85-1.2 25.27-0.6 24.7 0 23.85 0L23.85 0Q23 0 22.42-0.6 21.85-1.2 21.85-2.05L21.85-2.05 21.85-35Q21.85-35.85 22.42-36.43 23-37 23.85-37L23.85-37Q24.75-37 25.3-36.43 25.85-35.85 25.85-35L25.85-35 25.85-20.05 24.85-18.95Q25.1-20.25 25.95-21.58 26.8-22.9 28.1-23.95 29.4-25 31-25.63 32.6-26.25 34.35-26.25ZM62.25 0.5L62.25 0.5Q58.25 0.5 55.25-1.2 52.25-2.9 50.6-5.88 48.95-8.85 48.95-12.75L48.95-12.75Q48.95-17.1 50.67-20.18 52.4-23.25 55.15-24.88 57.9-26.5 61-26.5L61-26.5Q63.35-26.5 65.47-25.65 67.59-24.8 69.27-23.18 70.95-21.55 71.95-19.28 72.95-17 73-14.2L73-14.2Q72.95-13.4 72.34-12.85 71.75-12.3 70.95-12.3L70.95-12.3 51.2-12.3 50.3-15.75 69.55-15.75 68.75-15.05 68.75-16.15Q68.59-18.2 67.42-19.68 66.25-21.15 64.55-21.95 62.85-22.75 61-22.75L61-22.75Q59.5-22.75 58.02-22.23 56.55-21.7 55.37-20.53 54.2-19.35 53.5-17.5 52.8-15.65 52.8-13.05L52.8-13.05Q52.8-10.15 53.97-7.95 55.15-5.75 57.25-4.48 59.35-3.2 62.1-3.2L62.1-3.2Q63.9-3.2 65.2-3.65 66.5-4.1 67.42-4.78 68.34-5.45 69-6.15L69-6.15Q69.65-6.6 70.3-6.6L70.3-6.6Q71-6.6 71.5-6.1 72-5.6 72-4.9L72-4.9Q72-4.05 71.2-3.4L71.2-3.4Q69.75-1.85 67.37-0.68 65 0.5 62.25 0.5ZM91.49-25.7L91.49-25.7 103.24-25.7Q104.04-25.7 104.57-25.15 105.09-24.6 105.09-23.85L105.09-23.85Q105.09-23.05 104.57-22.53 104.04-22 103.24-22L103.24-22 91.49-22Q90.74-22 90.19-22.55 89.64-23.1 89.64-23.9L89.64-23.9Q89.64-24.65 90.19-25.18 90.74-25.7 91.49-25.7ZM96.74-32.5L96.74-32.5Q97.59-32.5 98.14-31.93 98.69-31.35 98.69-30.5L98.69-30.5 98.69-6.35Q98.69-5.15 99.04-4.55 99.39-3.95 99.97-3.73 100.54-3.5 101.09-3.5L101.09-3.5Q101.59-3.5 101.97-3.68 102.34-3.85 102.84-3.85L102.84-3.85Q103.34-3.85 103.77-3.38 104.19-2.9 104.19-2.15L104.19-2.15Q104.19-1.25 103.14-0.63 102.09 0 100.79 0L100.79 0Q100.09 0 99.07-0.1 98.04-0.2 97.04-0.75 96.04-1.3 95.37-2.58 94.69-3.85 94.69-6.15L94.69-6.15 94.69-30.5Q94.69-31.35 95.29-31.93 95.89-32.5 96.74-32.5ZM112.64 0L112.64 0Q111.79 0 111.21-0.6 110.64-1.2 110.64-2.05L110.64-2.05 110.64-23.85Q110.64-24.7 111.21-25.28 111.79-25.85 112.64-25.85L112.64-25.85Q113.54-25.85 114.09-25.28 114.64-24.7 114.64-23.85L114.64-23.85 114.64-17.25 114.04-18.3Q114.34-19.85 115.11-21.33 115.89-22.8 117.09-23.98 118.29-25.15 119.84-25.83 121.39-26.5 123.24-26.5L123.24-26.5Q124.34-26.5 125.26-25.98 126.19-25.45 126.19-24.5L126.19-24.5Q126.19-23.45 125.64-22.95 125.09-22.45 124.39-22.45L124.39-22.45Q123.74-22.45 123.14-22.73 122.54-23 121.64-23L121.64-23Q120.39-23 119.16-22.33 117.94-21.65 116.91-20.4 115.89-19.15 115.26-17.57 114.64-16 114.64-14.2L114.64-14.2 114.64-2.05Q114.64-1.2 114.06-0.6 113.49 0 112.64 0ZM151.14-26.1L151.14-26.1Q152.04-26.1 152.59-25.53 153.14-24.95 153.14-24.1L153.14-24.1 153.14-2.05Q153.14-1.2 152.56-0.6 151.99 0 151.14 0L151.14 0Q150.29 0 149.71-0.6 149.14-1.2 149.14-2.05L149.14-2.05 149.14-6.8 150.09-6.9Q150.09-5.8 149.34-4.5 148.59-3.2 147.29-2.08 145.99-0.95 144.24-0.23 142.49 0.5 140.44 0.5L140.44 0.5Q137.04 0.5 134.31-1.28 131.59-3.05 130.04-6.1 128.49-9.15 128.49-13.05L128.49-13.05Q128.49-17 130.06-20.03 131.64-23.05 134.31-24.78 136.99-26.5 140.34-26.5L140.34-26.5Q142.49-26.5 144.34-25.8 146.19-25.1 147.56-23.9 148.94-22.7 149.69-21.25 150.44-19.8 150.44-18.35L150.44-18.35 149.14-18.65 149.14-24.1Q149.14-24.95 149.71-25.53 150.29-26.1 151.14-26.1ZM140.84-3.2L140.84-3.2Q143.34-3.2 145.26-4.5 147.19-5.8 148.29-8.03 149.39-10.25 149.39-13.05L149.39-13.05Q149.39-15.8 148.29-18.03 147.19-20.25 145.26-21.53 143.34-22.8 140.84-22.8L140.84-22.8Q138.39-22.8 136.46-21.55 134.54-20.3 133.44-18.1 132.34-15.9 132.34-13.05L132.34-13.05Q132.34-10.25 133.44-8.03 134.54-5.8 136.46-4.5 138.39-3.2 140.84-3.2ZM181.58-37L181.58-37Q182.48-37 183.03-36.43 183.58-35.85 183.58-35L183.58-35 183.58-2.05Q183.58-1.2 183.01-0.6 182.43 0 181.58 0L181.58 0Q180.73 0 180.16-0.6 179.58-1.2 179.58-2.05L179.58-2.05 179.58-6.8 180.53-7.15Q180.53-5.95 179.81-4.63 179.08-3.3 177.76-2.15 176.43-1 174.68-0.25 172.93 0.5 170.88 0.5L170.88 0.5Q167.48 0.5 164.78-1.25 162.08-3 160.51-6.05 158.93-9.1 158.93-13L158.93-13Q158.93-16.95 160.51-20 162.08-23.05 164.76-24.78 167.43-26.5 170.78-26.5L170.78-26.5Q172.88-26.5 174.71-25.8 176.53-25.1 177.93-23.9 179.33-22.7 180.11-21.25 180.88-19.8 180.88-18.35L180.88-18.35 179.58-18.65 179.58-35Q179.58-35.85 180.16-36.43 180.73-37 181.58-37ZM171.28-3.2L171.28-3.2Q173.83-3.2 175.73-4.48 177.63-5.75 178.73-7.98 179.83-10.2 179.83-13L179.83-13Q179.83-15.85 178.73-18.05 177.63-20.25 175.71-21.53 173.78-22.8 171.28-22.8L171.28-22.8Q168.83-22.8 166.91-21.53 164.98-20.25 163.88-18.05 162.78-15.85 162.78-13L162.78-13Q162.78-10.25 163.88-8.03 164.98-5.8 166.91-4.5 168.83-3.2 171.28-3.2ZM202.68 0.5L202.68 0.5Q198.68 0.5 195.68-1.2 192.68-2.9 191.03-5.88 189.38-8.85 189.38-12.75L189.38-12.75Q189.38-17.1 191.11-20.18 192.83-23.25 195.58-24.88 198.33-26.5 201.43-26.5L201.43-26.5Q203.78-26.5 205.91-25.65 208.03-24.8 209.71-23.18 211.38-21.55 212.38-19.28 213.38-17 213.43-14.2L213.43-14.2Q213.38-13.4 212.78-12.85 212.18-12.3 211.38-12.3L211.38-12.3 191.63-12.3 190.73-15.75 209.98-15.75 209.18-15.05 209.18-16.15Q209.03-18.2 207.86-19.68 206.68-21.15 204.98-21.95 203.28-22.75 201.43-22.75L201.43-22.75Q199.93-22.75 198.46-22.23 196.98-21.7 195.81-20.53 194.63-19.35 193.93-17.5 193.23-15.65 193.23-13.05L193.23-13.05Q193.23-10.15 194.41-7.95 195.58-5.75 197.68-4.48 199.78-3.2 202.53-3.2L202.53-3.2Q204.33-3.2 205.63-3.65 206.93-4.1 207.86-4.78 208.78-5.45 209.43-6.15L209.43-6.15Q210.08-6.6 210.73-6.6L210.73-6.6Q211.43-6.6 211.93-6.1 212.43-5.6 212.43-4.9L212.43-4.9Q212.43-4.05 211.63-3.4L211.63-3.4Q210.18-1.85 207.81-0.68 205.43 0.5 202.68 0.5ZM244.63 0.5L244.63 0.5Q240.63 0.5 237.63-1.2 234.63-2.9 232.98-5.88 231.33-8.85 231.33-12.75L231.33-12.75Q231.33-17.1 233.05-20.18 234.78-23.25 237.53-24.88 240.28-26.5 243.38-26.5L243.38-26.5Q245.73-26.5 247.85-25.65 249.98-24.8 251.65-23.18 253.33-21.55 254.33-19.28 255.33-17 255.38-14.2L255.38-14.2Q255.33-13.4 254.73-12.85 254.13-12.3 253.33-12.3L253.33-12.3 233.58-12.3 232.68-15.75 251.93-15.75 251.13-15.05 251.13-16.15Q250.98-18.2 249.8-19.68 248.63-21.15 246.93-21.95 245.23-22.75 243.38-22.75L243.38-22.75Q241.88-22.75 240.4-22.23 238.93-21.7 237.75-20.53 236.58-19.35 235.88-17.5 235.18-15.65 235.18-13.05L235.18-13.05Q235.18-10.15 236.35-7.95 237.53-5.75 239.63-4.48 241.73-3.2 244.48-3.2L244.48-3.2Q246.28-3.2 247.58-3.65 248.88-4.1 249.8-4.78 250.73-5.45 251.38-6.15L251.38-6.15Q252.03-6.6 252.68-6.6L252.68-6.6Q253.38-6.6 253.88-6.1 254.38-5.6 254.38-4.9L254.38-4.9Q254.38-4.05 253.58-3.4L253.58-3.4Q252.13-1.85 249.75-0.68 247.38 0.5 244.63 0.5ZM260.62-26.15L260.62-26.15Q261.57-26.15 262.22-25.3L262.22-25.3 279.62-3.1Q280.02-2.55 280.02-1.9L280.02-1.9Q280.02-1.05 279.42-0.45 278.82 0.15 278.02 0.15L278.02 0.15Q277.07 0.15 276.37-0.75L276.37-0.75 258.97-22.9Q258.57-23.45 258.57-24.1L258.57-24.1Q258.57-25 259.2-25.58 259.82-26.15 260.62-26.15ZM260.62 0.1L260.62 0.1Q259.97 0.1 259.32-0.4 258.67-0.9 258.67-1.7L258.67-1.7Q258.67-2.35 259.17-2.95L259.17-2.95 267.37-13.3 269.47-10 262.22-0.7Q261.62 0.1 260.62 0.1ZM278.02-26.15L278.02-26.15Q278.87-26.15 279.4-25.6 279.92-25.05 279.92-24.35L279.92-24.35Q279.92-24.05 279.8-23.7 279.67-23.35 279.42-23.05L279.42-23.05 271.27-12.6 269.17-15.65 276.37-25.25Q277.07-26.15 278.02-26.15ZM296.02-26.5L296.02-26.5Q298.57-26.5 300.62-25.95 302.67-25.4 303.87-24.45 305.07-23.5 305.07-22.3L305.07-22.3Q305.07-21.65 304.64-21.05 304.22-20.45 303.42-20.45L303.42-20.45Q302.77-20.45 302.34-20.7 301.92-20.95 301.55-21.35 301.17-21.75 300.52-22.05L300.52-22.05Q299.92-22.4 298.77-22.6 297.62-22.8 296.42-22.8L296.42-22.8Q293.72-22.8 291.62-21.5 289.52-20.2 288.34-18 287.17-15.8 287.17-13L287.17-13Q287.17-10.2 288.32-8 289.47-5.8 291.52-4.5 293.57-3.2 296.27-3.2L296.27-3.2Q298.02-3.2 299.05-3.5 300.07-3.8 300.82-4.2L300.82-4.2Q301.67-4.7 302.14-5.2 302.62-5.7 303.47-5.7L303.47-5.7Q304.32-5.7 304.77-5.15 305.22-4.6 305.22-3.8L305.22-3.8Q305.22-2.9 303.97-1.9 302.72-0.9 300.59-0.2 298.47 0.5 295.82 0.5L295.82 0.5Q292.02 0.5 289.17-1.28 286.32-3.05 284.75-6.13 283.17-9.2 283.17-13L283.17-13Q283.17-16.8 284.8-19.85 286.42-22.9 289.32-24.7 292.22-26.5 296.02-26.5ZM322.97-26.25L322.97-26.25Q326.27-26.25 328.19-24.83 330.12-23.4 330.94-21.03 331.77-18.65 331.77-15.75L331.77-15.75 331.77-2.05Q331.77-1.2 331.19-0.6 330.62 0 329.77 0L329.77 0Q328.92 0 328.34-0.6 327.77-1.2 327.77-2.05L327.77-2.05 327.77-15.75Q327.77-17.65 327.22-19.18 326.67-20.7 325.39-21.63 324.12-22.55 321.92-22.55L321.92-22.55Q319.87-22.55 318.17-21.63 316.47-20.7 315.47-19.18 314.47-17.65 314.47-15.75L314.47-15.75 314.47-2.05Q314.47-1.2 313.89-0.6 313.32 0 312.47 0L312.47 0Q311.62 0 311.04-0.6 310.47-1.2 310.47-2.05L310.47-2.05 310.47-35Q310.47-35.85 311.04-36.43 311.62-37 312.47-37L312.47-37Q313.37-37 313.92-36.43 314.47-35.85 314.47-35L314.47-35 314.47-20.05 313.47-18.95Q313.72-20.25 314.57-21.58 315.42-22.9 316.72-23.95 318.02-25 319.62-25.63 321.22-26.25 322.97-26.25ZM360.21-26.1L360.21-26.1Q361.11-26.1 361.66-25.53 362.21-24.95 362.21-24.1L362.21-24.1 362.21-2.05Q362.21-1.2 361.64-0.6 361.06 0 360.21 0L360.21 0Q359.36 0 358.79-0.6 358.21-1.2 358.21-2.05L358.21-2.05 358.21-6.8 359.16-6.9Q359.16-5.8 358.41-4.5 357.66-3.2 356.36-2.08 355.06-0.95 353.31-0.23 351.56 0.5 349.51 0.5L349.51 0.5Q346.11 0.5 343.39-1.28 340.66-3.05 339.11-6.1 337.56-9.15 337.56-13.05L337.56-13.05Q337.56-17 339.14-20.03 340.71-23.05 343.39-24.78 346.06-26.5 349.41-26.5L349.41-26.5Q351.56-26.5 353.41-25.8 355.26-25.1 356.64-23.9 358.01-22.7 358.76-21.25 359.51-19.8 359.51-18.35L359.51-18.35 358.21-18.65 358.21-24.1Q358.21-24.95 358.79-25.53 359.36-26.1 360.21-26.1ZM349.91-3.2L349.91-3.2Q352.41-3.2 354.34-4.5 356.26-5.8 357.36-8.03 358.46-10.25 358.46-13.05L358.46-13.05Q358.46-15.8 357.36-18.03 356.26-20.25 354.34-21.53 352.41-22.8 349.91-22.8L349.91-22.8Q347.46-22.8 345.54-21.55 343.61-20.3 342.51-18.1 341.41-15.9 341.41-13.05L341.41-13.05Q341.41-10.25 342.51-8.03 343.61-5.8 345.54-4.5 347.46-3.2 349.91-3.2ZM382.46-26.5L382.46-26.5Q385.86-26.5 387.81-25.1 389.76-23.7 390.59-21.35 391.41-19 391.41-16.1L391.41-16.1 391.41-2.05Q391.41-1.2 390.84-0.6 390.26 0 389.41 0L389.41 0Q388.56 0 387.99-0.6 387.41-1.2 387.41-2.05L387.41-2.05 387.41-16Q387.41-17.9 386.84-19.43 386.26-20.95 384.94-21.88 383.61-22.8 381.31-22.8L381.31-22.8Q379.21-22.8 377.46-21.88 375.71-20.95 374.66-19.43 373.61-17.9 373.61-16L373.61-16 373.61-2.05Q373.61-1.2 373.04-0.6 372.46 0 371.61 0L371.61 0Q370.76 0 370.19-0.6 369.61-1.2 369.61-2.05L369.61-2.05 369.61-23.85Q369.61-24.7 370.19-25.28 370.76-25.85 371.61-25.85L371.61-25.85Q372.51-25.85 373.06-25.28 373.61-24.7 373.61-23.85L373.61-23.85 373.61-20.3 372.61-19.2Q372.86-20.5 373.76-21.83 374.66-23.15 376.01-24.2 377.36-25.25 379.01-25.88 380.66-26.5 382.46-26.5ZM409.41-26.5L409.41-26.5Q411.61-26.5 413.46-25.78 415.31-25.05 416.68-23.9 418.06-22.75 418.83-21.5 419.61-20.25 419.61-19.15L419.61-19.15 418.61-19.75 418.61-24.1Q418.61-24.95 419.18-25.53 419.76-26.1 420.61-26.1L420.61-26.1Q421.51-26.1 422.06-25.53 422.61-24.95 422.61-24.1L422.61-24.1 422.61-2.2Q422.61 1.9 420.88 4.6 419.16 7.3 416.26 8.65 413.36 10 409.81 10L409.81 10Q408.31 10 406.48 9.6 404.66 9.2 403.26 8.63 401.86 8.05 401.51 7.45L401.51 7.45Q400.76 6.95 400.58 6.33 400.41 5.7 400.76 5.15L400.76 5.15Q401.26 4.45 401.96 4.45 402.66 4.45 403.76 4.9L403.76 4.9Q404.26 5.05 405.21 5.4 406.16 5.75 407.41 6.03 408.66 6.3 409.86 6.3L409.86 6.3Q414.11 6.3 416.36 4.08 418.61 1.85 418.61-1.8L418.61-1.8 418.61-6.45 419.16-6.2Q418.86-4.8 417.96-3.6 417.06-2.4 415.73-1.48 414.41-0.55 412.78-0.03 411.16 0.5 409.51 0.5L409.51 0.5Q406.01 0.5 403.23-1.25 400.46-3 398.83-6.05 397.21-9.1 397.21-13L397.21-13Q397.21-16.95 398.83-20 400.46-23.05 403.21-24.78 405.96-26.5 409.41-26.5ZM409.96-22.8L409.96-22.8Q407.36-22.8 405.36-21.53 403.36-20.25 402.21-18.05 401.06-15.85 401.06-13L401.06-13Q401.06-10.25 402.21-8.03 403.36-5.8 405.36-4.5 407.36-3.2 409.96-3.2L409.96-3.2Q412.56-3.2 414.56-4.48 416.56-5.75 417.71-7.95 418.86-10.15 418.86-13L418.86-13Q418.86-15.9 417.71-18.1 416.56-20.3 414.56-21.55 412.56-22.8 409.96-22.8ZM440.71 0.5L440.71 0.5Q436.71 0.5 433.71-1.2 430.71-2.9 429.06-5.88 427.41-8.85 427.41-12.75L427.41-12.75Q427.41-17.1 429.13-20.18 430.86-23.25 433.61-24.88 436.36-26.5 439.46-26.5L439.46-26.5Q441.81-26.5 443.93-25.65 446.06-24.8 447.73-23.18 449.41-21.55 450.41-19.28 451.41-17 451.46-14.2L451.46-14.2Q451.41-13.4 450.81-12.85 450.21-12.3 449.41-12.3L449.41-12.3 429.66-12.3 428.76-15.75 448.01-15.75 447.21-15.05 447.21-16.15Q447.06-18.2 445.88-19.68 444.71-21.15 443.01-21.95 441.31-22.75 439.46-22.75L439.46-22.75Q437.96-22.75 436.48-22.23 435.01-21.7 433.83-20.53 432.66-19.35 431.96-17.5 431.26-15.65 431.26-13.05L431.26-13.05Q431.26-10.15 432.43-7.95 433.61-5.75 435.71-4.48 437.81-3.2 440.56-3.2L440.56-3.2Q442.36-3.2 443.66-3.65 444.96-4.1 445.88-4.78 446.81-5.45 447.46-6.15L447.46-6.15Q448.11-6.6 448.76-6.6L448.76-6.6Q449.46-6.6 449.96-6.1 450.46-5.6 450.46-4.9L450.46-4.9Q450.46-4.05 449.66-3.4L449.66-3.4Q448.21-1.85 445.83-0.68 443.46 0.5 440.71 0.5ZM483.7-26.5L483.7-26.5Q487.1-26.5 489.8-24.78 492.5-23.05 494.08-20.05 495.65-17.05 495.65-13.1L495.65-13.1Q495.65-9.15 494.08-6.1 492.5-3.05 489.83-1.28 487.15 0.5 483.8 0.5L483.8 0.5Q481.95 0.5 480.33-0.08 478.7-0.65 477.38-1.63 476.05-2.6 475.15-3.78 474.25-4.95 473.85-6.1L473.85-6.1 474.95-6.8 474.95-1.8Q474.95-0.95 474.4-0.35 473.85 0.25 472.95 0.25L472.95 0.25Q472.1 0.25 471.53-0.33 470.95-0.9 470.95-1.8L470.95-1.8 470.95-34.95Q470.95-35.8 471.53-36.4 472.1-37 472.95-37L472.95-37Q473.85-37 474.4-36.4 474.95-35.8 474.95-34.95L474.95-34.95 474.95-19.55 474.2-19.95Q474.55-21.2 475.43-22.38 476.3-23.55 477.58-24.48 478.85-25.4 480.43-25.95 482-26.5 483.7-26.5ZM483.25-22.8L483.25-22.8Q480.75-22.8 478.83-21.55 476.9-20.3 475.83-18.1 474.75-15.9 474.75-13.1L474.75-13.1Q474.75-10.3 475.83-8.05 476.9-5.8 478.83-4.5 480.75-3.2 483.25-3.2L483.25-3.2Q485.75-3.2 487.65-4.5 489.55-5.8 490.65-8.05 491.75-10.3 491.75-13.1L491.75-13.1Q491.75-15.9 490.65-18.1 489.55-20.3 487.65-21.55 485.75-22.8 483.25-22.8ZM520.75-25.85L520.75-25.85Q521.65-25.85 522.2-25.28 522.75-24.7 522.75-23.85L522.75-23.85 522.75-10.2Q522.75-5.15 519.92-2.38 517.1 0.4 512.05 0.4L512.05 0.4Q507.05 0.4 504.22-2.38 501.4-5.15 501.4-10.2L501.4-10.2 501.4-23.85Q501.4-24.7 501.97-25.28 502.55-25.85 503.4-25.85L503.4-25.85Q504.3-25.85 504.85-25.28 505.4-24.7 505.4-23.85L505.4-23.85 505.4-10.2Q505.4-6.8 507.15-5.05 508.9-3.3 512.05-3.3L512.05-3.3Q515.3-3.3 517.02-5.05 518.75-6.8 518.75-10.2L518.75-10.2 518.75-23.85Q518.75-24.7 519.32-25.28 519.9-25.85 520.75-25.85ZM534.55-35L534.55-2.05Q534.55-1.2 533.95-0.6 533.35 0 532.5 0L532.5 0Q531.65 0 531.1-0.6 530.55-1.2 530.55-2.05L530.55-2.05 530.55-35Q530.55-35.85 531.12-36.43 531.7-37 532.55-37L532.55-37Q533.45-37 534-36.43 534.55-35.85 534.55-35L534.55-35ZM546.69-35L546.69-2.05Q546.69-1.2 546.09-0.6 545.49 0 544.64 0L544.64 0Q543.79 0 543.24-0.6 542.69-1.2 542.69-2.05L542.69-2.05 542.69-35Q542.69-35.85 543.27-36.43 543.84-37 544.69-37L544.69-37Q545.59-37 546.14-36.43 546.69-35.85 546.69-35L546.69-35ZM565.64 0.5L565.64 0.5Q561.64 0.5 558.64-1.2 555.64-2.9 553.99-5.88 552.34-8.85 552.34-12.75L552.34-12.75Q552.34-17.1 554.07-20.18 555.79-23.25 558.54-24.88 561.29-26.5 564.39-26.5L564.39-26.5Q566.74-26.5 568.87-25.65 570.99-24.8 572.67-23.18 574.34-21.55 575.34-19.28 576.34-17 576.39-14.2L576.39-14.2Q576.34-13.4 575.74-12.85 575.14-12.3 574.34-12.3L574.34-12.3 554.59-12.3 553.69-15.75 572.94-15.75 572.14-15.05 572.14-16.15Q571.99-18.2 570.82-19.68 569.64-21.15 567.94-21.95 566.24-22.75 564.39-22.75L564.39-22.75Q562.89-22.75 561.42-22.23 559.94-21.7 558.77-20.53 557.59-19.35 556.89-17.5 556.19-15.65 556.19-13.05L556.19-13.05Q556.19-10.15 557.37-7.95 558.54-5.75 560.64-4.48 562.74-3.2 565.49-3.2L565.49-3.2Q567.29-3.2 568.59-3.65 569.89-4.1 570.82-4.78 571.74-5.45 572.39-6.15L572.39-6.15Q573.04-6.6 573.69-6.6L573.69-6.6Q574.39-6.6 574.89-6.1 575.39-5.6 575.39-4.9L575.39-4.9Q575.39-4.05 574.59-3.4L574.59-3.4Q573.14-1.85 570.77-0.68 568.39 0.5 565.64 0.5ZM581.14-25.7L581.14-25.7 592.89-25.7Q593.69-25.7 594.21-25.15 594.74-24.6 594.74-23.85L594.74-23.85Q594.74-23.05 594.21-22.53 593.69-22 592.89-22L592.89-22 581.14-22Q580.39-22 579.84-22.55 579.29-23.1 579.29-23.9L579.29-23.9Q579.29-24.65 579.84-25.18 580.39-25.7 581.14-25.7ZM586.39-32.5L586.39-32.5Q587.24-32.5 587.79-31.93 588.34-31.35 588.34-30.5L588.34-30.5 588.34-6.35Q588.34-5.15 588.69-4.55 589.04-3.95 589.61-3.73 590.19-3.5 590.74-3.5L590.74-3.5Q591.24-3.5 591.61-3.68 591.99-3.85 592.49-3.85L592.49-3.85Q592.99-3.85 593.41-3.38 593.84-2.9 593.84-2.15L593.84-2.15Q593.84-1.25 592.79-0.63 591.74 0 590.44 0L590.44 0Q589.74 0 588.71-0.1 587.69-0.2 586.69-0.75 585.69-1.3 585.01-2.58 584.34-3.85 584.34-6.15L584.34-6.15 584.34-30.5Q584.34-31.35 584.94-31.93 585.54-32.5 586.39-32.5ZM604.14-24.25L604.14-2.05Q604.14-1.2 603.56-0.6 602.99 0 602.14 0L602.14 0Q601.24 0 600.69-0.6 600.14-1.2 600.14-2.05L600.14-2.05 600.14-24.25Q600.14-25.1 600.71-25.68 601.29-26.25 602.14-26.25L602.14-26.25Q602.99-26.25 603.56-25.68 604.14-25.1 604.14-24.25L604.14-24.25ZM602.14-29.6L602.14-29.6Q600.89-29.6 600.29-30.1 599.69-30.6 599.69-31.65L599.69-31.65 599.69-32.35Q599.69-33.4 600.34-33.9 600.99-34.4 602.19-34.4L602.19-34.4Q603.39-34.4 603.99-33.9 604.59-33.4 604.59-32.35L604.59-32.35 604.59-31.65Q604.59-30.6 603.96-30.1 603.34-29.6 602.14-29.6ZM624.18-26.5L624.18-26.5Q627.58-26.5 629.53-25.1 631.48-23.7 632.31-21.35 633.13-19 633.13-16.1L633.13-16.1 633.13-2.05Q633.13-1.2 632.56-0.6 631.98 0 631.13 0L631.13 0Q630.28 0 629.71-0.6 629.13-1.2 629.13-2.05L629.13-2.05 629.13-16Q629.13-17.9 628.56-19.43 627.98-20.95 626.66-21.88 625.33-22.8 623.03-22.8L623.03-22.8Q620.93-22.8 619.18-21.88 617.43-20.95 616.38-19.43 615.33-17.9 615.33-16L615.33-16 615.33-2.05Q615.33-1.2 614.76-0.6 614.18 0 613.33 0L613.33 0Q612.48 0 611.91-0.6 611.33-1.2 611.33-2.05L611.33-2.05 611.33-23.85Q611.33-24.7 611.91-25.28 612.48-25.85 613.33-25.85L613.33-25.85Q614.23-25.85 614.78-25.28 615.33-24.7 615.33-23.85L615.33-23.85 615.33-20.3 614.33-19.2Q614.58-20.5 615.48-21.83 616.38-23.15 617.73-24.2 619.08-25.25 620.73-25.88 622.38-26.5 624.18-26.5ZM667.03-26.5L667.03-26.5Q670.43-26.5 673.13-24.78 675.83-23.05 677.4-20.05 678.98-17.05 678.98-13.1L678.98-13.1Q678.98-9.15 677.4-6.1 675.83-3.05 673.15-1.28 670.48 0.5 667.13 0.5L667.13 0.5Q665.28 0.5 663.65-0.08 662.03-0.65 660.7-1.63 659.38-2.6 658.48-3.78 657.58-4.95 657.18-6.1L657.18-6.1 658.28-6.8 658.28-1.8Q658.28-0.95 657.73-0.35 657.18 0.25 656.28 0.25L656.28 0.25Q655.43 0.25 654.85-0.33 654.28-0.9 654.28-1.8L654.28-1.8 654.28-34.95Q654.28-35.8 654.85-36.4 655.43-37 656.28-37L656.28-37Q657.18-37 657.73-36.4 658.28-35.8 658.28-34.95L658.28-34.95 658.28-19.55 657.53-19.95Q657.88-21.2 658.75-22.38 659.63-23.55 660.9-24.48 662.18-25.4 663.75-25.95 665.33-26.5 667.03-26.5ZM666.58-22.8L666.58-22.8Q664.08-22.8 662.15-21.55 660.23-20.3 659.15-18.1 658.08-15.9 658.08-13.1L658.08-13.1Q658.08-10.3 659.15-8.05 660.23-5.8 662.15-4.5 664.08-3.2 666.58-3.2L666.58-3.2Q669.08-3.2 670.98-4.5 672.88-5.8 673.98-8.05 675.08-10.3 675.08-13.1L675.08-13.1Q675.08-15.9 673.98-18.1 672.88-20.3 670.98-21.55 669.08-22.8 666.58-22.8ZM709.03-13L709.03-13Q709.03-9.1 707.33-6.05 705.63-3 702.7-1.25 699.78 0.5 696.08 0.5L696.08 0.5Q692.43 0.5 689.5-1.25 686.58-3 684.85-6.05 683.13-9.1 683.13-13L683.13-13Q683.13-16.9 684.85-19.95 686.58-23 689.5-24.75 692.43-26.5 696.08-26.5L696.08-26.5Q699.78-26.5 702.7-24.75 705.63-23 707.33-19.95 709.03-16.9 709.03-13ZM705.03-13L705.03-13Q705.03-15.9 703.85-18.1 702.68-20.3 700.65-21.55 698.63-22.8 696.08-22.8L696.08-22.8Q693.58-22.8 691.53-21.55 689.48-20.3 688.3-18.1 687.13-15.9 687.13-13L687.13-13Q687.13-10.15 688.3-7.95 689.48-5.75 691.53-4.48 693.58-3.2 696.08-3.2L696.08-3.2Q698.63-3.2 700.65-4.48 702.68-5.75 703.85-7.95 705.03-10.15 705.03-13ZM735.87-26.1L735.87-26.1Q736.77-26.1 737.32-25.53 737.87-24.95 737.87-24.1L737.87-24.1 737.87-2.05Q737.87-1.2 737.3-0.6 736.72 0 735.87 0L735.87 0Q735.02 0 734.45-0.6 733.87-1.2 733.87-2.05L733.87-2.05 733.87-6.8 734.82-6.9Q734.82-5.8 734.07-4.5 733.32-3.2 732.02-2.08 730.72-0.95 728.97-0.23 727.22 0.5 725.17 0.5L725.17 0.5Q721.77 0.5 719.05-1.28 716.32-3.05 714.77-6.1 713.22-9.15 713.22-13.05L713.22-13.05Q713.22-17 714.8-20.03 716.37-23.05 719.05-24.78 721.72-26.5 725.07-26.5L725.07-26.5Q727.22-26.5 729.07-25.8 730.92-25.1 732.3-23.9 733.67-22.7 734.42-21.25 735.17-19.8 735.17-18.35L735.17-18.35 733.87-18.65 733.87-24.1Q733.87-24.95 734.45-25.53 735.02-26.1 735.87-26.1ZM725.57-3.2L725.57-3.2Q728.07-3.2 730-4.5 731.92-5.8 733.02-8.03 734.12-10.25 734.12-13.05L734.12-13.05Q734.12-15.8 733.02-18.03 731.92-20.25 730-21.53 728.07-22.8 725.57-22.8L725.57-22.8Q723.12-22.8 721.2-21.55 719.27-20.3 718.17-18.1 717.07-15.9 717.07-13.05L717.07-13.05Q717.07-10.25 718.17-8.03 719.27-5.8 721.2-4.5 723.12-3.2 725.57-3.2ZM747.27 0L747.27 0Q746.42 0 745.85-0.6 745.27-1.2 745.27-2.05L745.27-2.05 745.27-23.85Q745.27-24.7 745.85-25.28 746.42-25.85 747.27-25.85L747.27-25.85Q748.17-25.85 748.72-25.28 749.27-24.7 749.27-23.85L749.27-23.85 749.27-17.25 748.67-18.3Q748.97-19.85 749.75-21.33 750.52-22.8 751.72-23.98 752.92-25.15 754.47-25.83 756.02-26.5 757.87-26.5L757.87-26.5Q758.97-26.5 759.9-25.98 760.82-25.45 760.82-24.5L760.82-24.5Q760.82-23.45 760.27-22.95 759.72-22.45 759.02-22.45L759.02-22.45Q758.37-22.45 757.77-22.73 757.17-23 756.27-23L756.27-23Q755.02-23 753.8-22.33 752.57-21.65 751.55-20.4 750.52-19.15 749.9-17.57 749.27-16 749.27-14.2L749.27-14.2 749.27-2.05Q749.27-1.2 748.7-0.6 748.12 0 747.27 0ZM785.27-37L785.27-37Q786.17-37 786.72-36.43 787.27-35.85 787.27-35L787.27-35 787.27-2.05Q787.27-1.2 786.69-0.6 786.12 0 785.27 0L785.27 0Q784.42 0 783.84-0.6 783.27-1.2 783.27-2.05L783.27-2.05 783.27-6.8 784.22-7.15Q784.22-5.95 783.49-4.63 782.77-3.3 781.44-2.15 780.12-1 778.37-0.25 776.62 0.5 774.57 0.5L774.57 0.5Q771.17 0.5 768.47-1.25 765.77-3 764.19-6.05 762.62-9.1 762.62-13L762.62-13Q762.62-16.95 764.19-20 765.77-23.05 768.44-24.78 771.12-26.5 774.47-26.5L774.47-26.5Q776.57-26.5 778.39-25.8 780.22-25.1 781.62-23.9 783.02-22.7 783.79-21.25 784.57-19.8 784.57-18.35L784.57-18.35 783.27-18.65 783.27-35Q783.27-35.85 783.84-36.43 784.42-37 785.27-37ZM774.97-3.2L774.97-3.2Q777.52-3.2 779.42-4.48 781.32-5.75 782.42-7.98 783.52-10.2 783.52-13L783.52-13Q783.52-15.85 782.42-18.05 781.32-20.25 779.39-21.53 777.47-22.8 774.97-22.8L774.97-22.8Q772.52-22.8 770.59-21.53 768.67-20.25 767.57-18.05 766.47-15.85 766.47-13L766.47-13Q766.47-10.25 767.57-8.03 768.67-5.8 770.59-4.5 772.52-3.2 774.97-3.2Z" opacity="1" transform="matrix(1,0,0,1,0,0)" fill="#ff000d" class="slogan-text-1" data-fill-palette-color="secondary" id="text-1"/>
                              </svg>
                            </g>
                          </svg>
                        </g>
                      </svg>
                    </g>
                  </svg>
                </g>
                <g>
                  <svg viewBox="0 0 74.65316143786853 74.65316143786853" height="74.65316143786853" width="74.65316143786853">
                    <g>
                      <svg/>
                    </g>
                    <g id="icon-0">
                      <svg viewBox="0 0 74.65316143786853 74.65316143786853" height="74.65316143786853" width="74.65316143786853">
                        <g>
                          <path d="M0 37.327c0-20.615 16.712-37.327 37.327-37.327 20.615 0 37.327 16.712 37.326 37.327 0 20.615-16.712 37.327-37.326 37.326-20.615 0-37.327-16.712-37.327-37.326zM37.327 72.715c19.544 0 35.388-15.844 35.388-35.388 0-19.544-15.844-35.388-35.388-35.389-19.544 0-35.388 15.844-35.389 35.389 0 19.544 15.844 35.388 35.389 35.388z" data-fill-palette-color="tertiary" fill="#1e55b3" stroke="transparent"/>
                        </g>
                        <g transform="matrix(1,0,0,1,19.800095949761594,19.73544322856989)">
                          <svg viewBox="0 0 35.052969538345344 35.18227498072876" height="35.18227498072876" width="35.052969538345344">
                            <g>
                              <svg xmlns="http://www.w3.org/2000/svg" version="1.1" x="0" y="0" viewBox="12.27473122892562 12.92028045107171 50.130794146046355 50.315719548928286" enable-background="new 0 0 75 75" height="35.18227498072876" width="35.052969538345344" class="icon-dxe-0" data-fill-palette-color="accent" id="dxe-0">
                                <path d="M26.755 40.782C26.626 41.111 26.672 41.299 26.672 41.299L26.841 43.74C26.757 47.08 25.295 48.172 25.295 48.172L27.363 61.477A29.3 29.3 0 0 1 20.789 58.121L19.929 48.521S19.467 48.288 18.548 47.865C17.631 47.443 16.67 46.257 16.425 45.851 16.185 45.444 15.617 44.306 14.236 43.264 12.858 42.221 12.725 42.719 12.361 42.086 11.995 41.455 12.912 41.057 12.912 41.057S15.46 40.56 17.613 43.246C17.613 43.246 17.678 43.229 17.794 43.213L17.824 43.111C17.798 43.114 17.783 43.114 17.783 43.114L17.825 43.11 17.954 42.675 17.966 42.499C18.654 42.485 21.15 42.595 22.203 44.828 22.269 44.934 22.336 45.042 22.401 45.157 22.401 45.157 22.203 42.028 17.967 42.491 17.988 42.154 18.026 41.44 17.986 41.1A3.5 3.5 0 0 0 17.736 40.213L15.554 35.068S15.138 34.201 15.91 33.795C16.681 33.389 17.102 34.088 17.102 34.088S19.414 38.709 19.675 39.281 20.284 39.114 20.284 39.114L19.451 32.939S19.211 31.93 20.294 31.704C21.377 31.48 21.472 33.085 21.472 33.085S22.201 38.401 22.299 39.018C22.398 39.634 22.736 39.039 22.736 39.039S23.551 33.926 23.63 33.385C23.712 32.843 23.88 32.244 24.68 32.27 25.48 32.295 25.37 34.02 25.37 34.02S24.759 39.209 24.732 39.598C24.706 39.988 24.961 39.885 24.961 39.885S26.898 35.891 27.056 35.607C27.216 35.321 27.527 34.704 28.313 35.022 29.098 35.338 28.318 37.073 28.318 37.073S26.886 40.455 26.755 40.782M62.189 38.072C61.525 37.617 61.109 38.127 60.904 38.356 60.699 38.587 58.089 41.9 58.089 41.9S57.832 41.942 57.936 41.588C58.04 41.232 59.665 36.545 59.665 36.545S60.117 34.965 59.382 34.777 58.368 35.112 58.18 35.597C57.999 36.081 56.2 40.659 56.2 40.659S55.762 41.143 55.8 40.554A896 896 0 0 1 56.241 34.88S56.481 33.372 55.43 33.359C54.377 33.348 54.399 34.333 54.399 34.333L53.91 40.23S53.435 40.845 53.31 40.262C53.185 39.677 51.982 34.919 51.982 34.919S51.736 34.183 50.937 34.403 50.347 35.511 50.347 35.511L51.322 40.728S51.416 41.17 51.374 41.601C51.343 41.917 51.17 42.546 51.079 42.863 54.958 43.348 54.517 46.221 54.517 46.221A7 7 0 0 0 54.398 45.872C53.908 43.725 51.85 43.057 51.074 42.879L51.023 43.054 50.814 43.431 50.771 43.426 50.814 43.432 50.765 43.521C50.654 43.513 50.589 43.514 50.589 43.514 49.14 40.582 46.676 40.524 46.676 40.524S45.742 40.708 45.952 41.367C46.161 42.03 46.388 41.596 47.454 42.843 48.522 44.091 48.817 45.263 48.958 45.689 49.101 46.115 49.75 47.414 50.517 47.99 51.282 48.569 51.663 48.881 51.663 48.881L50.188 60.421A29 29 0 0 0 56.274 56.576L56.707 49.651S58.286 48.938 59.045 45.856L59.385 43.558S59.381 43.374 59.57 43.096C59.757 42.817 61.775 39.974 61.775 39.974S62.854 38.525 62.189 38.072M51.367 19.826C50.159 19.164 49.535 20.099 49.222 20.528S45.013 27.036 45.013 27.036 44.583 27.153 44.701 26.53C44.817 25.905 46.805 17.643 46.805 17.643S47.311 14.877 46.026 14.681C44.741 14.487 44.35 15.422 44.117 16.28 43.883 17.137 41.584 25.243 41.584 25.243S40.921 26.14 40.883 25.126 40.689 15.383 40.689 15.383 40.845 12.771 39.051 12.927 37.453 14.76 37.453 14.76L37.608 24.892S36.906 26.021 36.594 25.048C36.283 24.073 33.438 16.162 33.438 16.162S32.892 14.953 31.567 15.46 30.748 17.448 30.748 17.448L33.282 26.178S33.515 26.919 33.515 27.658C33.515 28.399 33.164 30.192 33.164 30.192L33.129 30.273C40.036 30.354 39.751 35.431 39.751 35.431A13 13 0 0 0 39.499 34.872C38.242 31.08 34.269 30.404 33.123 30.287L32.872 30.869 32.802 30.868 32.871 30.872 32.802 31.031C32.612 31.037 32.503 31.051 32.503 31.051 29.543 26.295 25.333 26.607 25.333 26.607S23.774 27.075 24.245 28.166C24.713 29.257 25.024 28.479 27.051 30.426 29.077 32.375 29.779 34.324 30.091 35.025 30.403 35.728 31.728 37.832 33.131 38.688A74 74 0 0 1 35.235 40.014L34.563 63.093C35.529 63.187 36.509 63.236 37.501 63.236 40.001 63.236 42.428 62.93 44.742 62.357L43.964 40.482S46.537 39.002 47.316 33.623L47.51 29.647S47.472 29.335 47.742 28.828C48.016 28.323 50.977 23.139 50.977 23.139S52.574 20.489 51.367 19.826" fill="#ff585f" data-fill-palette-color="accent"/>
                              </svg>
                            </g>
                          </svg>
                        </g>
                      </svg>
                    </g>
                  </svg>
                </g>
              </svg>
            </g>
            <defs/>
          </svg>
        </g>
      </svg>
    </g>
  </g>
</svg>